<svg xmlns="http://www.w3.org/2000/svg" xmlns:xlink="http://www.w3.org/1999/xlink" viewBox="0 0 447.31 447.51"><defs><linearGradient id="a" x1="124.55" y1="176.39" x2="187.88" y2="118.41" gradientUnits="userSpaceOnUse"><stop offset="0.41" stop-color="#6260a7"/><stop offset="0.82" stop-color="#6a68ac"/></linearGradient><linearGradient id="b" x1="80.18" y1="224.64" x2="134" y2="169.17" gradientUnits="userSpaceOnUse"><stop offset="0.41" stop-color="#5b5ca5"/><stop offset="0.82" stop-color="#6260a7"/></linearGradient><linearGradient id="c" x1="327.82" y1="367.22" x2="386.64" y2="309.45" gradientUnits="userSpaceOnUse"><stop offset="0.41" stop-color="#6765aa"/><stop offset="0.82" stop-color="#5f5ea6"/></linearGradient><linearGradient id="d" x1="312.33" y1="381.81" x2="370.71" y2="326.23" gradientUnits="userSpaceOnUse"><stop offset="0.41" stop-color="#6a68ac"/><stop offset="0.82" stop-color="#6262a9"/></linearGradient><linearGradient id="e" x1="354.43" y1="338.8" x2="413.96" y2="283.28" gradientUnits="userSpaceOnUse"><stop offset="0.41" stop-color="#5f5ea6"/><stop offset="0.82" stop-color="#595aa3"/></linearGradient></defs><path d="M26.86,241.08a72,72,0,0,1,6.65-26,23.17,23.17,0,0,1,5.9,5.22A4.72,4.72,0,0,0,40,221c4.71,4.2,8.66,9.19,13.55,13.21a19.77,19.77,0,0,1,2.9,3.3,18,18,0,0,0,4.63,4.36,9.15,9.15,0,0,1,2.46,2.5,12.17,12.17,0,0,0,2.74,2.85c3.55,2.46,5.92,6.15,9.17,8.84,3.81,3.15,6.47,7.42,10.56,10.23,1.41,1,2.18,2.57,3.41,3.74,3.4,3.24,6.54,6.79,10,9.86,3.92,3.43,7.25,7.45,11.3,10.75,2.09,1.71,3.47,4.14,5.51,6,5.65,5.12,10.8,10.75,16.23,16.09,3.24,3.18,6.54,6.34,10,9.31,1.46,1.27,2.58,2.81,3.93,4.15,7,6.93,13.81,14,20.94,20.83,8.41,8,16.56,16.24,24.82,24.39,3.65,3.6,7.19,7.34,10.89,10.89,6.38,6.09,12.71,12.22,18.87,18.53,7.34,7.51,14.85,14.85,22.35,22.2,10.69,10.47,21.22,21.1,32,31.51,2.94,2.85,5.64,6,8.83,8.58a5.92,5.92,0,0,1,1.77,2.22,73.38,73.38,0,0,1-27.71,7.53,2.93,2.93,0,0,1-3.46-1.08c-1.48-1.72-3.14-3.26-5.88-2.45-1.29.39-2.39-.61-3.15-1.63-.58-.79-.37-1.55.66-1.88.49-.16,1,0,1.71-.19-1-2-2.14-3.69-4.64-3.74-1.63,0-2.78-.56-2.35-2.53a2.08,2.08,0,0,0-.77-2,35.66,35.66,0,0,0-3.66-3.5c-1-.74-1.77-1.33-3.12-.55-1.18.68-2.07-.13-2-1.56a7.89,7.89,0,0,0-4.92-7.27,2.37,2.37,0,0,0-1.72.07c-1.62.68-2.7-.26-3.68-1.28-.8-.83-.89-1.86.45-2.18,1.53-.38,1.07-1,.45-1.77a4.73,4.73,0,0,0-4.1-2.18,6.87,6.87,0,0,1-3.23-.54c-.75-.36-1.53-.8-1.45-1.74s1-.88,1.71-1a1,1,0,0,0,.72-.36,17.24,17.24,0,0,0-3.18-3.77c-3.35-2.46-6-5.65-8.87-8.53-.82-.81-1.59-1.51-2.88-.84a2.75,2.75,0,0,1-2.72-.43c-1-.56-1.67-1.3-.12-2,1.13-.5.95-1,.36-1.82a15.44,15.44,0,0,0-3.38-3.13,2,2,0,0,0-2.09-.21,2.58,2.58,0,0,1-2.34-.1c-1-.52-2.1-1-2-2.35.09-1.49,1.56-.9,2.43-1.32-1.21-1.85-2.44-3.56-4.89-3.74a1.79,1.79,0,0,1-1.67-1.53c-.69-3.12-3.15-4.83-5.35-6.76-.78-.69-1.42-.41-2.15.12-1,.71-1.85.23-2.55-.47s-.34-1.45.37-2,.42-1.17.08-1.77a13.33,13.33,0,0,0-4.69-4.57,1.92,1.92,0,0,0-1.7-.18,3.89,3.89,0,0,1-1.49.33c-1.39-.12-2.68-.52-3.13-2-.5-1.67,1-1.83,2.19-2.22-1.58-2.2-3.22-3.83-6-3.55a3.38,3.38,0,0,1-2.33-.49c-1.13-.8-1.23-1.88,0-2.57.9-.51.8-.83.28-1.46a11.43,11.43,0,0,0-1.71-2,56.61,56.61,0,0,1-8.67-8.7c-1-1.14-2.06-1.84-3.66-1.25a3.41,3.41,0,0,1-2.38-.24c-.63-.25-1.26-.54-1.36-1.29s.54-1,1.1-1.16c1.16-.37,1.07-1,.44-1.81a24.49,24.49,0,0,0-2.46-2.53,2.51,2.51,0,0,0-3.19-.57c-1.56.78-2.88.08-3.89-1.13s-.73-2.15.72-2.67c1.19-.42.92-.9.37-1.56-.71-.85-1.43-1.85-2.54-2-1.82-.3-2.71-1.51-3.61-2.91a25.1,25.1,0,0,0-3.27-4.15c-1.11-1.11-2.1-2.24-4-1.15-.88.51-1.89-.17-2.5-.94s0-1.45.69-1.95.25-.89,0-1.32a20.6,20.6,0,0,0-4-4.35,2.34,2.34,0,0,0-2.46-.5,2.79,2.79,0,0,1-1.73.2c-1.4-.36-2.8-.93-3.13-2.45-.36-1.7,1.51-1.37,2.43-2-1.56-2.11-3.35-3.57-6.09-3.43a4.81,4.81,0,0,1-1.95-.27c-.7-.28-1.39-.63-1.49-1.47s.46-1.21,1.14-1.4c1-.26.92-.74.41-1.42a9.93,9.93,0,0,0-1.61-1.81A79.44,79.44,0,0,1,91,308.91a3,3,0,0,0-3-1.08,3.61,3.61,0,0,1-1.31,0c-1.05-.21-2.16-.56-2.37-1.69-.24-1.29,1.38-.72,1.89-1.56a18.18,18.18,0,0,0-4-4.25,1.56,1.56,0,0,0-1.86-.09,2.85,2.85,0,0,1-2.56-.06,3.15,3.15,0,0,1-2.12-2.36c-.15-1.25,1.13-1.31,2-1.77-1.17-2.14-3.13-3.14-5-4.26-.53-.31-.81.07-1.17.28a2,2,0,0,1-2.11,0c-.57-.32-1.2-.65-1.23-1.42a1.23,1.23,0,0,1,1.06-1.24c1.17-.31.91-.88.38-1.58a25.63,25.63,0,0,0-2.72-2.89,1.72,1.72,0,0,0-2.36-.37,3,3,0,0,1-3-.14c-.69-.32-1.33-.76-1.35-1.6s.77-.94,1.4-1.08c1-.22,1-.83.41-1.4-1.47-1.44-3-2.87-4.5-4.22-.78-.67-1.63-.39-2.5-.09-1.32.44-4.37-1.49-4.53-2.82-.08-.7.18-.93,2.1-1.85-1.41-2-3-3.53-5.66-3.56a5.36,5.36,0,0,1-1.74-.21c-1.81-.62-2.09-1.6-.68-2.82.71-.62.61-1.05.11-1.64A11.32,11.32,0,0,0,43.59,262a74,74,0,0,1-8.39-8.41,5.13,5.13,0,0,0-5.48-1.95,2.31,2.31,0,0,1-.87,0,1.73,1.73,0,0,1-1.56-1.36,1.15,1.15,0,0,1,.89-1.52c1.34-.41,1.3-1.15.35-1.81C26.33,245.43,26.45,243.32,26.86,241.08Z" transform="translate(-26.36 -26.17)" style="fill:#766aad"/><path d="M26.86,241.08a5.76,5.76,0,0,0,2.25,5.73c1.65,1.26,1.41,1.75-.59,2.31-.53.15-1.07.27-.86,1s.63,1.41,1.37,1.12c3.59-1.36,5.82.71,7.68,3.16,2.24,3,5.26,5.07,7.79,7.71a9.23,9.23,0,0,1,1,1.12c.56.82,1.23,1.72-.57,1.88a1.42,1.42,0,0,0-1,.69c-.18.62.59.72.93,1.05a2.05,2.05,0,0,0,1.68.37c3.43-.25,5.29,1.93,7,4.31-.36.82-1,.43-1.41.59s-1.08.24-1.21.8.64.71.89,1.09c1.13,1.72,2.42,2.33,4.24.95.48-.37,1.06,0,1.41.32,1.82,1.68,3.64,3.37,5.36,5.15,1,1.09.84,1.82-.83,1.82-.47,0-1.17-.26-1.34.4s.47,1.08,1,1.24c1.06.31,2.18,1.16,3.16-.25.58-.85,1.26-.19,1.69.17A25.56,25.56,0,0,1,71,288.61c.55.77.23,1-.56,1.1s-1.67-.21-1.82.76c-.12.74.78,1,1.32,1.27a1.28,1.28,0,0,0,1.94-.8,1.87,1.87,0,0,1,.25-.4c2.33,1.85,5.28,2.94,6.55,5.82-.15.17-.23.33-.34.36-.79.21-1.92-.33-2.27.83-.22.73.61,1.1,1.05,1.55.82.85,2.06,1.36,2.92.65,1.36-1.12,2.12-.36,3,.44s1.56,1.56,2.34,2.33,1.71,1.52,1.5,2.49-1.56.36-2.38.88a3.23,3.23,0,0,0,3.68,1.38,2.08,2.08,0,0,1,2.24.38c3.72,4.44,8.59,7.71,12.3,12.15.88,1.06,1.34,1.74-.61,1.7-.6,0-1.27.07-1.32.84s.66.88,1.17,1.12a6.23,6.23,0,0,0,2.61.23,7.09,7.09,0,0,1,6.24,4.67,2.66,2.66,0,0,1-.39.16c-.88.18-2-.4-2.56.73-.27.55.3.94.67,1.26,1,.82,2.14,1.75,3.29,1,1.43-.89,2.43-.33,3.38.44a24,24,0,0,1,4.68,5.22c.3.44,1,1.2-.25,1.47-.58.13-1.68,0-1.16,1,.39.75,1.65,1.66,2.36.9,1.56-1.68,2.44-.45,3.42.45a24.89,24.89,0,0,1,2.78,3.1c1.54,1.95,2.44,4.59,5.54,5,.82.1,1.57,1.28,2.2,2.07.89,1.12,1.76,2.35-.87,2.15-1.11-.08-1.17.59-.79,1.45a2.61,2.61,0,0,0,3.75,1.27c1.26-.94,2.24-.42,3.16.34a26.51,26.51,0,0,1,2.67,2.63c1.71,1.86,1.65,2.08-.68,3.12-.26.12-.66.11-.59.5a1,1,0,0,0,.47.65c1.09.4,2.2,1,3.37.31a1.8,1.8,0,0,1,2.53.52c3.62,4.5,8.23,8,12,12.39.81.94,1.06,1.5-.53,1.51-.51,0-1.13-.05-1.2.66a1.41,1.41,0,0,0,1,1.34,2.19,2.19,0,0,0,1.28.18c3.28-.64,5.2,1.4,7.09,3.52.42.48,1.14,1-.17,1.35-.85.19-2.49-.54-2.08,1.27a2.4,2.4,0,0,0,3.17,1.6c1.26-.36,2.26-.79,3.45.14,2.1,1.63,4.17,3.27,5.09,5.89a.84.84,0,0,1-.6,1.21c-.7.16-1.53.4-.72,1.2.5.49,1.42,1.5,2.18.28.93-1.49,1.64-.88,2.61-.06,1.61,1.38,3.55,2.64,4.36,4.54a7.89,7.89,0,0,0,5.16,4.77c1.53.53,2.37,2.45,3.18,4-.18.09-.25.16-.31.15-1-.15-2-.77-2.83.19-.32.37,0,.9.39,1.13,1,.63,1.82,1.81,3.27,1,2.52-1.4,3.36,1.32,5,2.08.36.16.58.64.84,1,1.71,2.34,1.7,2.34-1.18,3.44,1.4.77,2.42,2.17,4.07.65.67-.61,1.26,0,1.72.38a17.32,17.32,0,0,1,3.32,3.18c1.53,2.35,3.78,3.82,5.83,5.58a35.7,35.7,0,0,1,4.12,4.55c.9,1.12.1,1.26-.89,1.28-.59,0-1.57-.39-1.69.48s.76,1.15,1.5,1.32a5.54,5.54,0,0,0,1.92.35c3-.45,4.76,1.3,6.27,3.55.58.87.71,1.25-.52,1.36-.68.06-1.8-.51-1.82.88,0,.7,2.47,2.26,3.08,1.87,2.71-1.7,4.14.65,5.6,2s3.54,2.95,2.25,5.59a.81.81,0,0,0,.24,1.13c.51.48.85.27,1.23-.23a1.58,1.58,0,0,1,2.52-.11c1.8,1.59,3.51,3.27,5.21,5a1.44,1.44,0,0,1,.43,1.93c-.82,1.46.16,2,1.36,1.81,3.16-.37,4.29,2,5.75,4a1.24,1.24,0,0,1,.21,1c-.16.38-.62.27-1,.14a1.91,1.91,0,0,0-2.07,0,.64.64,0,0,0,.08,1c.88.59,1.72,1.92,2.78,1.41,3.1-1.51,4.63.85,6.26,2.48,1,1,1.77,1.63,3.13,1.48a46.55,46.55,0,0,1-10.92.74,95.54,95.54,0,0,1-23.84-3.82,83.86,83.86,0,0,1-35-20.58Q120,380,50.77,310.58c-13.13-13.2-20.78-29.35-23.56-47.8a112.5,112.5,0,0,1-.73-20A2.73,2.73,0,0,1,26.86,241.08Z" transform="translate(-26.36 -26.17)" style="fill:#786bad"/><path d="M286.83,465.35c-1.68-1.46-3.45-2.84-5-4.41-6.83-6.75-13.53-13.64-20.43-20.32-3.45-3.34-7-6.62-10.28-10.07-5.32-5.53-11-10.66-16.36-16.14-7.83-8-15.68-16-23.77-23.75-11.07-10.59-21.79-21.52-32.66-32.3-5.45-5.4-11.2-10.5-16.53-16s-11-11-16.46-16.51c-4.12-4.14-8-8.5-12.75-12a14,14,0,0,1-2-2.3,151.49,151.49,0,0,0-12-12.16c-4.35-4.1-8.26-8.62-12.69-12.63-5.51-5-10.89-10.15-16-15.57-3.69-3.93-7.56-7.73-11.43-11.42-4.15-4-7.51-8.77-12.42-12a11,11,0,0,1-3-3.18,9.57,9.57,0,0,0-3.05-2.81,8.09,8.09,0,0,1-2.62-2.26c-3.18-4.84-7.85-8.28-11.84-12.31-3.78-3.82-7.1-8.21-11.62-11.3-.2-.13-.24-.5-.35-.77a59.62,59.62,0,0,1,7.07-13.19c3.17,2.73,6.06,5.74,9,8.68,3.63,3.62,7.23,7.31,11.11,10.69.11.1.25.16.35.27,4.11,4.7,9.06,8.56,13.19,13.24,2.43,2.74,5.36,5,7.85,7.71,2.63,2.86,5.81,5.16,8.09,8.38,1.15,1.62,3,2.59,4.39,4,4,4,8.32,7.84,12.19,12.08,3,3.24,6.42,6,9.47,9.21,5.44,5.67,11.23,11,16.81,16.5,5.1,5.05,10.27,10.06,15.24,15.27,2.92,3,6,6,9,9,5.67,5.74,11.94,10.87,17.4,16.81,4.68,5.09,10,9.5,14.64,14.63,5.18,5.75,11.28,10.54,16.54,16.16,4.8,5.15,10,9.87,14.81,15,3.58,3.87,7.74,7.2,11.36,11.05,4.47,4.76,9.61,8.83,14,13.63,4.13,4.49,8.51,8.74,12.92,12.91s8.07,9.57,13.43,13c1.55,1,2.35,2.81,3.71,4.06,3.72,3.43,7.47,6.85,10.86,10.59,4.09,4.51,8.77,8.43,12.77,13A54.7,54.7,0,0,1,286.83,465.35Z" transform="translate(-26.36 -26.17)" style="fill:#746bad"/><path d="M80.32,159.55q9-9.08,18-18.14c2.06-2.08,4.2-4.09,6.3-6.13,4.69-4.25,9-8.89,13.5-13.31,2.4-2.36,3.6-2.36,5.76.17,5.95,7,11.91,14,18,20.79,3.36,3.76,6.65,7.59,9.95,11.4,6.84,7.91,13.74,15.79,20.35,23.91,1.6,2,3.48,3.72,5.08,5.73,2.41,3,2.51,3,.57,6.14a8.35,8.35,0,0,1-1.81,2.2q-14.17,14.19-28.38,28.35c-.69.69-1.22,1.92-2.62,1.43-.21-1.71,1.27-2.37,2.18-3.33,2.07-2.2,2.18-2.2.76-4.73-1-1.82.68-1.84,1.65-2.62a4.65,4.65,0,0,1-2.39-2.58c-.27-1-1.31-1.09-2.24-.76-1.87.68-3-.16-3.64-1.81a6.07,6.07,0,0,0-1.9-2.64,1.3,1.3,0,0,1-.57-1.54,1.24,1.24,0,0,1,1.45-.76c1.8.43,4.49-1,4.95,2.41.33-2.87-.18-3.33-2.78-2.71a8.93,8.93,0,0,1-9.49-4.35c-.89-1.66-.28-2.7,1.62-2.77a16.45,16.45,0,0,1,2,.26c.62.05,1.29.35,1.87-.24-.68-.76-1.52-.5-2.27-.37-4.09.76-7.53-.76-9.45-4.1a23.26,23.26,0,0,0-4.22-4.93,3.55,3.55,0,0,1-.94-3.68,2.51,2.51,0,0,0-1-3.05,1.22,1.22,0,0,1-.12-1.69c-.75.73-.16,1.23.12,1.76-.25,1.54-1,1.53-2.17.83a12.27,12.27,0,0,1-4.81-4.67,25,25,0,0,0-2.15-2.79c-.36-.5-.6-1.33.27-1.33,2.4,0,4.84-1.74,7.21.19a3.18,3.18,0,0,0-2.53-1.17c-.29,0-.65.09-.86-.06-1.7-1.14-3.37-.49-5.14-.2-2.16.35-4.72-2.22-4.73-4.38,0-1.12.86-1.22,1.63-1.43s1.48-.07,2.18-.31a5.54,5.54,0,0,0,2-.68,1,1,0,0,0-.8-1c-2.37-.17-4.63-1.4-7.1-.76-2,.51-4.7-1.39-5-3.33-.1-.77.38-1,1-1.27.85-.34,1.08-.9.64-1.78-1.33.91-2.54,1.56-2.68-1,0-.79-.9-.62-1.45-.63a3.48,3.48,0,0,1-3-1.48c-.81-1.21-1.47-1.06-2.41-.09q-3.9,4-7.94,7.95C82.07,159.14,81.51,160.14,80.32,159.55Z" transform="translate(-26.36 -26.17)" style="fill:#6260a7"/><path d="M169,70.85c11.85-11.72,22.53-24.75,37.32-33.15a47.53,47.53,0,0,1,8.08-3.94c1.8.53,3.4,1,4.61-1.29.71-1.3,3.83-.8,4.66.54.57.93.47,1.93-.7,2-1.85.12-2.56,1.49-3.62,2.68,1.71.8,2.41,2.82,4.35,3.38.56.17.64.87.67,1.51.07,2.1,1.06,3.19,3.19,3.35a27,27,0,0,0,4.84.23,4.46,4.46,0,0,1,1.94.29c2.57.92,3,2.88,1,4.74-.46.42-1.32.82-1.56.4-1-1.76-1.68-.3-2.55.09,1.45,2.33,3.2,3.46,6.18,2.92a7.5,7.5,0,0,1,8.61,5c.43,1.1,0,1.67-2,2.69a6.14,6.14,0,0,0,3.62.71c1.38,0,4.68,2.49,5.06,3.78a2.16,2.16,0,0,1-.59,2.23,1.6,1.6,0,0,1-1.85.22c-.76-.29-1.67-.6-1.9-1.39-.52-1.71-1.69-1.81-3.12-1.5.27.52.87.92.89,1.63.07,2.29,2,3.3,3.32,4.72.84.92,1.75.19,2.49-.48s1.16-1.44,2.23-1a1.38,1.38,0,0,1,.81,1.44,2.22,2.22,0,0,1-1.65,2.12c-1.74.57-1.58,1.45-.53,2.55,1.47,1.55,3,3,4.47,4.57.66.73,1.1.72,1.67-.18,1.17-1.86,2.08-2.13,3.52-1.28.9.53,1.57,3.15,1.05,4.15s-1.83.76-3.05,1.34c1.55,1.4,3.39,2.27,4.15,4.17.21.51.76,0,1.12-.21.73-.51,1.52-.71,2.17,0A1.72,1.72,0,0,1,268,92c-.29.54-1.07,1-.46,1.71s1.3.36,2,0c.33-.18.76-.35,1.06-.17,1.63,1,3.67.63,5.22,1.34s2.82,2.26,4.41,3.23c.76.46.33,1.47-.47,2a2,2,0,0,1-.57.24c-1.27.24-2.84-.95-3.8.8-2,1.11-4.32,1.43-6.5,2a127.9,127.9,0,0,0-31,13c-.75.44-1.46,1-2.43.84-.61-.25-.76-.85-1.05-1.35a9.8,9.8,0,0,0-3.91-4.2,12.66,12.66,0,0,1-5.09-6.16c-.31-.69-.49-1.39-1.25-1.7-2.48-1-3.72-3.24-5.11-5.3-.33-.48-.47-1.15-.94-1.48-2.77-1.92-4.39-4.87-6.66-7.2a142.94,142.94,0,0,1-13.17-15.34c-1.62-2.23-4-3.54-5.42-5.79a25.32,25.32,0,0,0-5.37-6.08c-1-.84-1.5-2.16-2.33-3.19-1-1.25-1.72-1.39-2.93-.12-3.45,3.61-7,7.11-10.58,10.6C170.88,70.32,170.32,71.46,169,70.85Z" transform="translate(-26.36 -26.17)" style="fill:#6f69ad"/><path d="M279.33,100c.25-.54,1.22-.85.63-1.65a2.23,2.23,0,0,0-2.1-1c-1.44.12-1.48.1-1.08-1.12.26-.82-.41-.94-.8-1-1.89-.35-4,.21-5.58-1.39-.23-.23-.75,0-.95.35-1.06,1.65-1.76.39-2.57-.28-1.29-1.08-.27-1.45.52-2a1.16,1.16,0,0,0,0-1.9,1.06,1.06,0,0,0-1.66.52c-.64,1.72-1.5.68-1.7,0-.54-1.91-2-2.75-3.51-3.66-.49-.29-1.2-.52-.88-1.28s.94-.58,1.53-.61c.77,0,2.26,0,1.92-.75-.53-1.17.95-3-1.26-3.6-1.39-.39-2.16-.14-2.41,1.27a1.8,1.8,0,0,1-1.09,1.54c-.89.31-1-.65-1.4-1.08-1.59-1.64-3.24-3.21-4.79-4.88s-1.44-2.38.8-3.09a2,2,0,0,0,1.53-1.4,1.19,1.19,0,0,0-.41-1.39c-.59-.4-.95.06-1.3.43s-.68,1.26-1.52,1.51c-1,.31-1.88.63-2.59-.66a13,13,0,0,0-2.07-2.27c-.64-.67-1.39-1.15-1-2.4s-1-1.48-2.08-2.27c1.42-.14,2.52-.32,3.61-.33.64,0,1.65.26,1.48,1-.4,1.59.84,1.64,1.64,2.12s1.36.61,1.81-.36c.37-.81.53-1.67-.36-2.13a7.05,7.05,0,0,1-2-1.9c-1.27-1.54-3.19-.2-4.7-.91-.43-.2-1,0-1.45-.36a1.2,1.2,0,0,1-.38-1.2c.14-.7.69-.71,1.21-.61s1,.23,1.27-.44a1.22,1.22,0,0,0-.55-1.51,2.6,2.6,0,0,1-1-1.11c-1.13-3.48-4-3.56-6.69-3-4.54.89-4.34-.64-7.42-4,2.09.41,2.53-1.65,4-2.31,0,.36.11.58,0,.74-.23.6-1.22,1.29,0,1.73.77.28,1.72-.84,1.47-1.18-.85-1.18,1.81-1.55.54-2.28a8,8,0,0,0-3.87-1.17c-2.83-.07-6.13.88-8.19-2.25-.23-.36-.78-.7-.5-1.12,1.41-2.1-.4-2.06-1.57-2.46-.28-.09-.78-.23-.78-.3.21-2.08-2-1.67-3-2.9a3.42,3.42,0,0,0,2.19-2.16c.26-1,1.27-.77,2.06-.81s1.51,0,1.17-1c-.43-1.35-1.78-1-2.78-1.36s-1.39.21-1.75.88c-1.23,2.24-2.62,2.44-4.59.61a78.25,78.25,0,0,1,25.06-7A103.33,103.33,0,0,1,256,26.3a6.05,6.05,0,0,1,2.59.38c2.3,2.76,5.52,4.81,7.29,7.87,2.52,4.34,6.58,7.23,9.5,11.19a110.39,110.39,0,0,0,8.2,9.44c3.79,4.07,7,8.7,10.83,12.7,4,4.18,7.63,8.7,11.41,13.07,2.35,2.71,4.45,5.62,7.31,7.87a2.74,2.74,0,0,1,1.21,2.9c-.08.2-.19.39-.28.59-2,4.47-5.51,5.82-10.32,5.75-7.12-.09-14.19,1-21.22,2.23C281.42,100.48,280.32,100.85,279.33,100Z" transform="translate(-26.36 -26.17)" style="fill:#716aad"/><path d="M177.35,189.91a.78.78,0,0,1,0-.22c1.7-2.89,1.43-2.69-.77-5.65-2.74-3.7-6.55-6.43-8.9-10.45A14.87,14.87,0,0,0,165,170.5c-3.91-3.71-6.41-8.65-10.72-12.05-1.41-1.11-2-3.09-3.35-4.51-4.5-4.91-9-9.85-13.23-15-3.76-4.54-8-8.66-11.44-13.5a44.82,44.82,0,0,0-3.55-3.89c-1.17-1.31-2.64-1.18-4,.22-3.94,4-8,8-12,12-.61.61-1.09,1.44-2.1,1.49,4.75-4.81,9.47-9.64,14.24-14.43q11.69-11.71,23.4-23.39c.52-.51,1.09-1,1.64-1.45,2.2-1.78,2.74-1.77,4.62.36,6.45,7.33,12.71,14.83,19.15,22.16,3.05,3.48,6.14,6.93,9.1,10.46,3.68,4.37,7.55,8.57,11.27,12.9,3.05,3.54,5.76,7.39,9.21,10.61,1.14,1.06,2.35,2.28,2.24,4.12-2,5.74-4.8,11.19-6.87,16.92a19.13,19.13,0,0,1-1.11,2.64c-.26.47-.61.88-.9,1.33-3.7,4.18-7.8,8-11.73,11.91C178.47,189.79,178,190.37,177.35,189.91Z" transform="translate(-26.36 -26.17)" style="fill:url(#a)"/><path d="M467.35,282.32A66.65,66.65,0,0,1,456.24,302c-3.29-3.64-6.44-7.41-9.9-10.88-3.77-3.78-7.45-7.66-11.46-11.21a27.79,27.79,0,0,1-4-4.39c-1.47-2-3.63-3.33-5.26-5.23-4.85-5.66-10.69-10.38-15.66-15.93a21.25,21.25,0,0,1-2-2.62,6,6,0,0,0-2.56-2.34,2.55,2.55,0,0,1-.94-.57c-3.57-4.17-8.06-7.48-11.35-11.92a6.61,6.61,0,0,0-.88-1.26c-4.56-3.92-7.91-9.1-13-12.46a9.78,9.78,0,0,1-2.33-2.63c-2.75-3.81-7-6.25-9.3-10.48a5.53,5.53,0,0,0-2.26-1.73,16.39,16.39,0,0,1-4.86-5,9.14,9.14,0,0,0-6.57-4c.13-2.29,2.3-3,3.46-4.5a118.33,118.33,0,0,1,15.32-5.37c3.24.5,5.7,2.53,8.3,4.29a1.81,1.81,0,0,1,.75.8c1.43,3.75,4.74,5.77,7.49,8.36,1.83,1.74,3.5,3.68,5.38,5.42a11.15,11.15,0,0,0,2.61,2.28,2,2,0,0,1,1,.81c1.63,3.79,5.86,5.25,7.81,8.8a11.64,11.64,0,0,0,3.51,3.29,32.79,32.79,0,0,1,6.65,7c.77,1,1.94,1.58,2.74,2.52,1.47,1.71,3.35,3.05,4.36,5.2a5,5,0,0,0,2.78,2.42c2.63,1,4,3.11,5.29,5.35a7.05,7.05,0,0,0,3.39,3.3,4.4,4.4,0,0,1,2.49,2.09c1.6,3.86,5.48,5.59,7.89,8.68a29.5,29.5,0,0,0,6.32,6c2.86,2,3.64,5.93,7.15,7.14a.77.77,0,0,1,.32.3,22.9,22.9,0,0,0,8.37,8.19C467.48,281.83,467.45,282.11,467.35,282.32Z" transform="translate(-26.36 -26.17)" style="fill:#6f69ad"/><path d="M467.35,282.32a19.55,19.55,0,0,1-8.47-8.08,2.78,2.78,0,0,0-1.33-1.09c-1.65-.86-3.2-1.81-3.5-3.9a1.25,1.25,0,0,0-.72-1.05c-1.39-.58-2.17-1.9-3.25-2.73-3.4-2.59-5.89-6.05-9.09-8.76-1.7-1.44-3.35-2.7-4-4.92a1.42,1.42,0,0,0-.73-.79c-4-1.51-5.54-5.34-7.93-8.37-1.11-1.4-3.2-1.3-4.36-2.76-.44-.55-1.09-1-1.4-1.64-1.12-2.47-3.21-4.08-5.22-5.71s-3.18-3.76-4.81-5.59a41.51,41.51,0,0,0-4.67-4.12c-2.93-2.43-4.4-6.29-8.08-7.91-.59-.26-.82-1-1-1.63a2.85,2.85,0,0,0-1.39-1.92c-1.43-.66-2.28-2.17-3.41-2.84-2.85-1.69-4.32-4.63-6.87-6.61-2.16-1.68-5.15-3.3-5.57-6.71-.07-.59-.68-.91-1.19-1.24-2.41-1.57-4.73-3.31-7.6-4,.16-1.11,1.14-1.23,1.93-1.52,6-2.26,11.94-4.79,17.76-7.54a8.22,8.22,0,0,1,3.14-.9,50.92,50.92,0,0,1,7.9,7.2,36.51,36.51,0,0,0,5.13,5.12,10.77,10.77,0,0,1,2.39,2.56,9.41,9.41,0,0,0,1.6,2.1c4.35,3.61,7.78,8.17,12.12,11.79a14.75,14.75,0,0,1,3.76,4.29,3.26,3.26,0,0,0,.8,1c4.19,3.15,7.28,7.41,11.13,10.92,4.11,3.75,7.84,7.93,11.57,12.06,1.59,1.76,3.5,3.14,5.08,4.86,3.85,4.22,8.16,8,11.69,12.53,1.24,1.58,3.22,2.29,4.35,4A70,70,0,0,1,467.35,282.32Z" transform="translate(-26.36 -26.17)" style="fill:#726aad"/><path d="M353.87,199.25c1.69-.55,2.72.52,4.14,1.17,2.44,1.12,2.75,3.59,4.45,4.89,3.61,2.77,6.47,6.21,9.61,9.43,2.22,2.29,4.18,4.8,6.42,7,1.38,1.39,3.05,2.49,4.55,3.78,2.67,2.29,4.67,5.26,7.28,7.55s3.84,5.58,6.6,7.45c3.73,2.53,5.51,7.1,9.79,9a2.32,2.32,0,0,1,1,.86c2.55,4,6.2,7,9.31,10.42a38.59,38.59,0,0,0,5.52,4.91c2,1.55,3.17,4.24,5.16,5.88,3.24,2.68,5.5,6.26,8.75,8.93a96.68,96.68,0,0,1,7.25,7.21c1.07,1.08,2.32,1.94,3.32,3.13,2.57,3.05,5.35,5.93,8.06,8.87a4.07,4.07,0,0,1,1.21,2.29c-.13.16-.27.32-.41.47a10,10,0,0,0-1.31,1.87,53.21,53.21,0,0,1-8.4,9.21c-1.15-.3-1.76-1.28-2.53-2Q413,281,382.41,250.38c-.66-.65-1.16-1.57-2.28-1.57-11.43-12-23.41-23.51-35.05-35.34-.81-.82-1.83-1.51-2.14-2.74,0-1.59,1.26-2.46,2.13-3.48,2.24-2.63,4.8-5,7.26-7.39C352.74,199.46,353.17,199,353.87,199.25Z" transform="translate(-26.36 -26.17)" style="fill:#6c69ac"/><path d="M120.44,177.63c1.77.42,2.85,1,1.62,3.17-.87,1.51.79,4.22,2.88,5,1,.37,2.13.39,1.34,1.94-.22.43.09.84.39,1.19,2.67,3.07,5.73,5.2,10.07,3.92,1.18-.34,2,.31,2.79.88a.6.6,0,0,1,0,.57c-.65.87-1.61.44-2.45.55h-.22c-1.31-.07-2.73-1.2-3.88.22-.46.56,1.85,4.11,3.14,4.46,2.17.59,4.24,1.87,6.73.78,1.83-.81,2.72.06,3,2.29,0,.2.22.37.33.56.24.43,1.17.91.13,1.31-.74.29-2,.17-1.89-.82.24-2-1-1.71-2.14-1.73a7.83,7.83,0,0,1-1.54-.08c-.62-.15-1.3-.21-1.53.42s.42,1.06.92,1.31a3.42,3.42,0,0,1,1.64,2.43c.43,1.37,1.18,2.63,3,1.46a1.86,1.86,0,0,1,2.43.33c1,1,1.29,2.59,3,3.23,1,.36-.23,1.36-1,1.42-1.45.13-1.81.48-.67,1.6,1.66,1.65,1.36,3-.4,4.5-1.19,1-2.62,1.94-3.12,3.6.44,1-.43,1.46-.94,2q-6.69,6.77-13.46,13.46c-.53.52-1,1.33-2,.95-.45-1.18.5-1.74,1.11-2.41a4.4,4.4,0,0,0-1-7,15.91,15.91,0,0,1-5.27-6.31,1.73,1.73,0,0,0-1.07-1,2.42,2.42,0,0,1-2-2.27c0-.83-.72-1-1.26-1.37-1.28-.87-2.35-2-3.56-3a2.21,2.21,0,0,1-.92-1.92c.26-2.83-1.52-4.24-3.78-5-2.07-.66-3.16-1.67-2.91-3.92a2.67,2.67,0,0,0-2-3c-.82-.3-1.62-.69-2.43-1a3.54,3.54,0,0,1-2.44-3.58c.11-2-.84-2.84-2.56-3.2a2.14,2.14,0,0,1-2-1.77c-.15-.83-.45-1.27-1.45-1.23a1.43,1.43,0,0,1-1.59-2c.36-1.19-.17-1.65-1.08-2-1.32-.48-2.39-1.14-2.51-2.72,0-.37-.25-.84-.56-.9-2.4-.47-3.13-2.87-4.87-4.1-.12-.08-.31-.13-.36-.25-1.68-4.13-6-6.09-8.12-9.87-1.28-2.29-1.3-2.3-3.16-.45-2,2-4,4.07-6.09,6.06-.64.61-1.19,1.61-2.38,1q7.71-8.18,15.89-15.88c1.09-.08,1.58-1,2.24-1.65,2.83-2.78,5.65-5.57,8.41-8.42.84-.86,1.46-.91,2,.17a3.5,3.5,0,0,0,3.79,2c.87-.06,2.48-.38,1.34,1.52a.64.64,0,0,0,.22.95.91.91,0,0,0,1.15-.39c.32-.42.37-1.53,1-1.06s.64,1.49.82,2.3c.14.64-.35,1-.9,1-2.36.08-1.12.94-.51,1.89,1.08,1.68,2.25,2.71,4.3,1.47a2.18,2.18,0,0,1,1.91.08,5.69,5.69,0,0,0,2.77.58c1.91-.29,3.09.54,3.76,2.51-1.77.07-3.35.92-5.15.9-1.1,0-1.7.31-1.08,1.73,1.19,2.77,3.62,4.17,6.41,2.16a2.2,2.2,0,0,0,.31-.3c1.74,2.35,5.12.7,6.95,2.84.21.24.37.47.23.77a.56.56,0,0,1-.72.34c-1.38-.4-2.57-1.61-4.14-1.18-1.3.35-2.51,1.12-4,.5a49.38,49.38,0,0,1,4.12,5.75c.78,1.36,2.61,1.36,3.64,2.61C119.81,179.35,120.06,178.05,120.44,177.63Z" transform="translate(-26.36 -26.17)" style="fill:url(#b)"/><path d="M64.43,175.43c1.31-.17,1.89-1.32,2.71-2.12,2.48-2.4,4.89-4.87,7.49-7.48.77,1.23,1.81,2.07,2.23,3.46a5,5,0,0,0,2.68,2.8c2.08,1,2.91,2.95,3.91,4.78A6.8,6.8,0,0,0,85,178.61c1.7,1.53,4.16,2.83,5,4.49a8.37,8.37,0,0,0,4.07,3.74c.73.39,1,1.1.11,1.73-.65.46-.22.92,0,1.32a.75.75,0,0,0,1.13.24c1.37-.78,1.72,0,1.71,1.2s.53,1.58,1.7,1.8c1.86.36,3.49,1,2.87,3.66a2.72,2.72,0,0,0,1.81,3,19.51,19.51,0,0,0,2,.79c2.65.68,3.64,2.32,3.12,5-.26,1.38.83,1.83,1.85,2a7.2,7.2,0,0,1,4.66,3.35c.2.29.47.68.41,1-.16.92-.79,1.94.2,2.64,1.52,1.08,2.56,2.86,4.44,3.37.83.22,1.18.39.94,1.25-.4,1.49.49,2,1.73,2.17a3.36,3.36,0,0,1,1,.31c-.42,2.54,2.78,2.89,3,5.08.09.85,1,1.42,1.86,1.69,2.8.84,2.51,3.66,3.51,5.64.27.55-.57.94-.92,1.39-.8,1-2.14,1.6-2.45,3,.42,1-.44,1.46-1,2a51.13,51.13,0,0,1-4.36,4.35,10,10,0,0,0-3.77,6.9c-1.2.49-1.71-.54-2.33-1.15-2.89-2.82-5.73-5.7-8.59-8.55q-26.49-26.51-53-53c-.9-.91-2.47-1.65-1.61-3.44Z" transform="translate(-26.36 -26.17)" style="fill:#5b5ca5"/><path d="M169,70.85c.93,0,1.39-.77,1.94-1.33q5.72-5.67,11.38-11.39c.85-.86,1.45-1.52,2.4,0,2.49,3.86,6.36,6.56,8.81,10.49a4.1,4.1,0,0,0,3.05,2.32,1.27,1.27,0,0,1,.86.58c3.55,7,9.23,12.25,14.58,17.76a9.62,9.62,0,0,1,1,1.64c1,1.51,1.92,3.16,3.62,4,2.48,1.26,2.85,4.19,4.78,5.88.27.24.37.74.66.86,3.9,1.62,4.43,6.13,7.36,8.57.38.33.69.8,1.19.92,2.94.71,3.75,3.13,4.51,5.59-.36,1.34-1.52,1.91-2.53,2.61A95.5,95.5,0,0,0,214,135.65c-.48.55-1,1.14-1.8,1.08-2.12-2.31-3.67-5.1-6.05-7.19-3.76-3.3-6.42-7.56-9.81-11.2a117.79,117.79,0,0,1-10.27-12c-1.78-2.53-4.33-4.38-6.18-6.85-1.43-1.91-1.2-2.61,1.23-3.24-3.2.52-5.43-1.17-7-3.53-2.75-4.11-6.62-7.23-9.44-11.26-1.69-2.43-2.53-2.34-4.64-.31s-3.77,4.11-6,5.77a.9.9,0,0,1-.9-.19Q160.83,78.55,169,70.85Z" transform="translate(-26.36 -26.17)" style="fill:#6b68ac"/><path d="M312.44,446.91l-2.35,2.55c-.92.67-1.61,1.59-2.56,2.23l-.14.06h-.15c-1,.26-1.27-.61-1.67-1.13a40.25,40.25,0,0,0-6.82-6.86c-1.4-1.11-2.2-2.76-3.56-3.9-4.88-4.12-9-9-13.75-13.31-3.68-3.29-7.1-7-10.63-10.5-4.38-4.33-8.74-8.69-13.1-13s-8.78-8.64-13.18-12.95c-5.41-5.27-10.67-10.7-16-16-4.85-4.79-9.47-9.84-14.5-14.43-7.16-6.54-13.83-13.57-20.77-20.33q-5.67-5.52-11.19-11.23c-4.53-4.71-9.67-8.8-14.15-13.54-5.56-5.88-11.3-11.57-17.06-17.24-10.57-10.41-21.28-20.7-31.67-31.29-7.51-7.66-15.38-15-23-22.5-6.36-6.32-12.59-12.75-19-19-5.72-5.6-11.65-11-17.3-16.64-4.1-4.1-8.19-8.23-12.18-12.44-.62-.66-1.18-1.37-.51-2.33a7.6,7.6,0,0,1,2.07-2.23c.69-.47,1-1.37,1.92-1.61,2.3.81,3.65,2.8,5.31,4.38,4.15,3.94,8,8.26,12.34,11.93,2,1.64,3.34,3.7,5.15,5.41,6.12,5.78,11.83,12,17.88,17.82,3,2.91,6.11,5.72,9.25,8.5a13.22,13.22,0,0,1,1.41,1.39c1.33,1.59,1.28,2.13-.65,3.87,3.64-.82,5.39,1.4,7.59,3.32,6.2,5.43,11.14,12.09,17.48,17.39a51.31,51.31,0,0,1,7.06,6.59c3.19,3.87,7.14,6.94,10.46,10.67A90.7,90.7,0,0,0,155,290.79a41.74,41.74,0,0,1,4.26,4.15c1.44,1.57,1.37,2.06-.61,3.93,5.12-1.34,6.78,3,9.69,5.16,4.35,3.18,7.29,7.84,11.28,11.41,3.78,3.37,7.35,7,10.89,10.56s7.21,7.09,10.81,10.63,7.12,7.6,11.24,10.82a21.44,21.44,0,0,1,3.88,3.91c1.49,1.95,1.33,2.54-.83,3.62a.19.19,0,0,0,.22.25c3-.82,5.09.28,6.79,2.73a13.49,13.49,0,0,0,2.74,2.53,46.56,46.56,0,0,1,6.88,7.09c2.47,3.06,5.81,5.12,8.47,7.95,2.11,2.23,4.73,4.09,6.63,6.38,3.29,4,7.75,6.77,10.69,11,1.69,2.45,4.6,3.66,6.31,6.11,2,2.82,5,4.54,7.42,6.85,1.47,1.38,3.45,2.6,3.22,5.11-.87.8-2-.18-3.21.68,1.37.11,2.35.12,3.22-.67a3.28,3.28,0,0,1,3,1.43c2.22,2.76,5.13,4.77,7.65,7.19a61.82,61.82,0,0,1,4.44,5.13,25.85,25.85,0,0,0,4.63,4.6c2.43,1.75,4,4.48,6.49,6.21,3.94,2.75,6.35,7.11,10.42,9.71C312.18,445.63,312.77,446.09,312.44,446.91Z" transform="translate(-26.36 -26.17)" style="fill:#736aad"/><path d="M347.72,412c-5.62,5.84-11.21,11.71-17.27,17.11-.33.29-.6.63-.91.95a8.75,8.75,0,0,1-3-.5,1.84,1.84,0,0,1-1.62-1.84,4.17,4.17,0,0,0-2-3.45c-1.18-.89-1.8-2.31-2.94-3.2-.44.07-.37.41-.45.67-.2.64.53,1.66-.5,1.91-1.39.34-2.06-.87-2.83-1.72-.61-.69-.75-1.58,0-2.14,1.42-1,.59-1.65-.25-2.3a11.16,11.16,0,0,1-3.43-3.67,1.37,1.37,0,0,0-2-.78c-1.4.55-2.13-.05-2-1.56a2.66,2.66,0,0,0-1.14-2.25,15.44,15.44,0,0,1-3.05-3.15,2.87,2.87,0,0,0-2.51-1.1,17.83,17.83,0,0,1-2.64-.14,1.92,1.92,0,0,1-1.66-1.81c0-1.09.68-1.54,2.07-1.51a3.71,3.71,0,0,1-2.57-2.32c-.86-2.09-2.48-2.77-4.57-2.66-1.09.06-2.38.42-2.73-1.07s1.23-1.33,1.92-1.91c-1.09-2.22-3.62-2.7-5.08-4.43-.47-.55-.54.15-.7.35-.85,1.07-1.63,1-2.13-.22a2.21,2.21,0,0,0-1.93-1.53c-.8-.12-1.81-.35-1.74-1.34s1.17-.86,1.93-1c.28-.05.59,0,.82-.44-1.06-1.59-2.29-2.81-4.51-2.83-1.18,0-2.81.33-3.22-1.53a.82.82,0,0,1,.32-.52c.62-.2,1.32.06,2.19-.46-3-2.11-4.77-5.4-8.2-6.82a1.14,1.14,0,0,1-.67-.55c-.61-2.1-2.4-3.58-3-5.67a3.34,3.34,0,0,1,1.16-1.82q7.42-7.46,14.89-14.88c.55-.55,1.05-1.26,2-1.1a30.36,30.36,0,0,1,6.5,6.8c1.74,2.25,4.14,3.52,6,5.46,1.22,1.25,2.89,2.19,2.69,4.27-.06.67.27.51.62.49a3.77,3.77,0,0,1,3,1.56c2.55,2.95,5.56,5.42,8.25,8.21.82.85,2,1.84.11,3.2,4.49.42,7.09,3.43,9.6,6.46,2,2.39,4.78,3.92,6.62,6.44,1.16,1.58,2.7,2.92,3.32,4.86a1.18,1.18,0,0,0,1.12.89,5.85,5.85,0,0,1,3.83,2.4,60.9,60.9,0,0,0,6.37,6.38C343.88,408,345.27,410.53,347.72,412Z" transform="translate(-26.36 -26.17)" style="fill:#6f69ad"/><path d="M299.75,457.9a2.24,2.24,0,0,1-1.53-.78c-4.21-4.46-8.6-8.75-12.87-13.16a90.24,90.24,0,0,0-7.68-7.46c-3.06-2.47-5.2-5.88-8.54-8.18-2.12-1.46-3.53-3.9-5.46-5.69-4.07-3.79-8-7.77-11.86-11.7-3.6-3.62-7.44-7-10.75-10.95a16.06,16.06,0,0,0-3.62-3.2c-2.13-1.36-3.5-3.5-5.26-5.24-4.7-4.61-9.51-9.11-14.16-13.77-5-5-9.84-10.19-14.84-15.2-2.16-2.17-4.64-4-6.81-6.18-4-4-7.73-8.27-11.91-12-5.39-4.87-10-10.5-15.46-15.3-4-3.49-7.57-7.5-11.47-11.09-3.23-3-6.25-6.18-9.27-9.31-4-4.15-8.35-8-12.2-12.28-3.71-4.15-8-7.72-12.16-11.45-1.68-1.51-3.05-3.36-4.64-5-6.14-6.27-12.5-12.33-18.68-18.56a84.51,84.51,0,0,0-9.47-8.76c-1.89-1.39-2.87-3.61-4.67-5.17A134.7,134.7,0,0,1,75,236.26c-3.75-4.12-8-7.75-11.8-11.74-4-4.14-8.13-8.24-12.54-12a88.4,88.4,0,0,1-6.67-7c-1.11-1.2-3-1.67-3.38-3.57a25.59,25.59,0,0,1,3.92-5.44c1.61,2.53,4.16,4.11,6.22,6.19,7.75,7.84,15.48,15.7,23.3,23.46,9.18,9.11,18.65,17.93,27.73,27.14,5.21,5.29,10.39,10.61,15.77,15.71C129.58,280.43,141,292.5,153,304q15.09,14.5,29.75,29.46c5.05,5.15,10.59,9.75,15.55,15,5.57,5.87,11.5,11.38,17.1,17.2,4.18,4.35,8.79,8.25,12.92,12.61,4.89,5.16,10.23,9.86,15,15.17,3.4,3.78,7.4,7.12,11,10.74,5.14,5.11,10.61,9.91,15.6,15.18,4.34,4.58,8.76,9.11,13.34,13.43,4.26,4,7.9,8.71,12.67,12.21,2.38,1.75,3.79,4.46,6.19,6.26,1.25.94,2.39,1.77,4,1.74A26,26,0,0,1,299.75,457.9Z" transform="translate(-26.36 -26.17)" style="fill:#736aad"/><path d="M406.85,352.82C401,359,394.94,365,388.76,370.92c-2.34.58-3.58-1.33-4.67-2.6-4-4.64-8.72-8.48-12.83-13-3.24-3.54-7.09-6.58-10.38-10.1-3.55-3.81-7.18-7.6-11-11-6.08-5.42-11.38-11.59-17.47-17-2.68-2.36-5-5.14-7.48-7.73a1.63,1.63,0,0,1-.51-1.18c.26-1.2,1.21-2,1.83-2.94,3.89-3.94,7.82-7.86,11.75-11.77.66-.64,1.22-1.51,2.35-1.4a6,6,0,0,0,3.2.57c1.66-.21,2.94.37,3.3,2.15.19.91.58,1.17,1.51,1.05,1.32-.18,2,.73,2.4,1.84.42,1.34-.82,1.49-1.62,2a2.21,2.21,0,0,0,2.27.33c1.61-.59,2.7.14,3.57,1.39a16.19,16.19,0,0,0,1.65,2.06c1.5,1.52,1.38,2-.64,2.95a.79.79,0,0,0-.55.48,6,6,0,0,0,3,.16,6.42,6.42,0,0,1,6.19,4.89,1.32,1.32,0,0,1-.15,1c-1.35,1.93-1.33,2.06.53,3.57.18.14.37.24,1,.69-1-.79-1.82-1.12-1.52-2s1.07-.91,1.84-.89a7.1,7.1,0,0,1,5.64,4.33,1.44,1.44,0,0,1-.19,1.46,2.13,2.13,0,0,0,.11,3,3.48,3.48,0,0,0,3.47,1.45,5.54,5.54,0,0,1,6,3.81,1,1,0,0,1-.67,1.39c-.6.27-1.35.47-1,1.38a1.77,1.77,0,0,0,1.74,1.12,5.25,5.25,0,0,0,2.14-.43c.92-.32,2-.33,2.4.5.83,1.8,2.85,3.24,2,5.65-.21.61.2.77.66.86a4.85,4.85,0,0,0,2-.14,3.61,3.61,0,0,1,4.21,2,8.8,8.8,0,0,0,3.88,4c2,1,2.17,3.08.32,4.43,2.1-.07,4.21-.44,4.56,2.28,0,.33.37.43.68.24C405.54,350.94,406.15,352,406.85,352.82Z" transform="translate(-26.36 -26.17)" style="fill:url(#c)"/><path d="M324.75,308.25c1.15,1.37,2.24,2.81,3.48,4.11,5.21,5.48,10.95,10.42,16.08,16,3.17,3.45,6.9,6.38,10.29,9.65,2.24,2.16,4.26,4.57,6.49,6.76,3.83,3.78,8,7.27,11.56,11.28,3.18,3.56,7,6.41,10.12,10,1.71,2,3.3,4.09,6,4.86q-7.92,8.4-16.32,16.33c-1.6.8-2.46-.41-3.37-1.3-2.62-2.57-5-5.39-7.71-7.87-9.7-8.88-18.73-18.45-28.08-27.7-7.78-7.69-15.82-15.12-23.43-23-.75-.77-1.79-1.39-1.68-2.7.57-1.36,2-2,2.61-3.39.86-1.78,2.59-2.71,3.93-4,2.66-2.58,5.24-5.25,7.9-7.84C323.19,308.88,323.67,308,324.75,308.25Z" transform="translate(-26.36 -26.17)" style="fill:url(#d)"/><path d="M380.32,248.73c.09-.31.06-.86.61-.51a7.89,7.89,0,0,1,1.12,1.05q31.4,31.41,62.79,62.81c.47.46.86,1,1.28,1.5-4.74,5-9.51,9.92-14.64,14.51-1.07.05-2.19-.32-3.18.43a.72.72,0,0,1-1-.1c-1.13-2.12-3.77-2.48-5-4.49s-1.32-1.82.69-2.67c.2-.09.38-.2.38-.46a2,2,0,0,0-.13-.16c-2.31,1.63-3.79.47-5.24-1.38-.71-.9-1.8-1.5-2.58-2.39-.55-.62-1.07-1.27-.7-2.17.57-1.4-.27-1.58-1.28-1.39-1.73.33-2.23-.52-2.28-2a3.94,3.94,0,0,0-1.9-3.31c-.94-.6-1.92-1-1.93-2.41,0-1-.85-.49-1.37-.46-3,.17-3.2,0-3.75-2.94a18.13,18.13,0,0,0-.37-1.95c-.52-1.7-1.51-2.25-3.25-1.86a3.41,3.41,0,0,1-4.1-4.08c.11-.53.27-1-.12-1.45-1.33-1.44-2.3-3.22-3.84-4.22-.38-.07-.4,0-.26.19.46.59,1.64,1,1,1.91s-1.74.36-2.57,0a3.45,3.45,0,0,1-2.13-4.25c.28-1.5-.5-1.83-1.68-1.89a6.24,6.24,0,0,1-5.52-3.08c-.36-.63-.89-1.29-.23-2,1.42-1.54-.1-1.81-1-2.26a4.09,4.09,0,0,0-1.75-.08c-2.52-.05-3.77-1.54-3.21-4,.28-1.22.1-1.6-1.11-1-.34.18-.89.36-1,.13-1.15-1.89-3.57-2.22-4.78-4a2.57,2.57,0,0,1-.41-1.9,5,5,0,0,1,1.64-2.27c2.83-2.85,5.61-5.76,8.55-8.5A13.23,13.23,0,0,0,380.32,248.73Z" transform="translate(-26.36 -26.17)" style="fill:#595aa3"/><path d="M366.18,266.19c.15,1.76.73,3.13,2.79,3.34a1.45,1.45,0,0,1,1.22.85c.53,1.33,1,2.39,2.39.6.29-.38.83,0,1.17.28.58.45.43,1,.2,1.59-1,2.52,0,3.86,2.69,3.64a3.37,3.37,0,0,1,3.35,1.16c.59.79,1.52,1.52-.29,2-.86.21-.41.68-.17,1.15a5.86,5.86,0,0,0,5.56,3.23c2.21.05,2.73.81,1.82,2.86a1.64,1.64,0,0,0,.23,1.81,4.63,4.63,0,0,0,4,2.09c-.28-1.26-1.56-1.36-2-2.2-.19-.34-.38-.64-.11-1s.6-.1.94.05c2.54,1.12,3.57,3.75,5.45,5.51a.56.56,0,0,1,0,.94c-1.28.82-.95,1.62,0,2.47s1.69,2.1,3.35,1.25c1.47-.77,3.42.44,3.72,2.19.14.79.3,1.58.43,2.37.38,2.4,1.31,3,3.6,2,1-.45,1.87-.38,1.57.65-.44,1.54.27,1.8,1.34,2.36a4.18,4.18,0,0,1,2.35,4.14c0,.81-.17,1.53,1.26,1.3,2.64-.42,2.68-.27,2,2.21-.18.66.28.92.59,1.3,1.31,1.57,3.22,2.53,4.37,4.29.38.58,1.13,1,1.76,0a1.59,1.59,0,0,1,2.1-.72.94.94,0,0,1,.57,1.27c-.4,1-1.32.72-2.1.79a4.79,4.79,0,0,0-.61.14c1.23,1.55,2,3.43,4.15,3.9a1.52,1.52,0,0,1,1,.78c.45,1.58,1,1.76,2.34.66.83-.7,1.62.2,2.35.67a156.94,156.94,0,0,1-12.17,12.3c-1.86,1.75-3.66,3.56-5.49,5.35a6.83,6.83,0,0,1-4.43-3.57c-.48-.83-.74-2,.56-2.34,1-.23,2.27-.46,2.67,1.1.16.62.15,1.33.86,1.87.5-3-2.83-2.71-3.57-4.48-.61.21-.59.73-.83,1.07-.79,1.11-1.6,1.1-2-.21s-.93-2.5-2.55-2.91c-.89-.22-.56-1-.11-1.6.62-.78.84-1.52.05-2.35s-1.23-.52-2,0a2.09,2.09,0,0,1-2.64-.41c-.67-.68-1.34-1.35-2.06-2s-1.13-1.2.11-1.81c1.05-.52.52-1-.22-1.33a2.55,2.55,0,0,0-1.08-.22c-2.91.19-4.36-2.1-6.23-3.67-.35-.28-.71-.87-.43-1.15,2.39-2.41-1.64-2.47-1.51-4.1,0-.33-.53.18-.78.33a2.06,2.06,0,0,1-2.65-.19c-1.21-1.19-2.76-2-3.84-3.29-.54-.66-1.54-1.21-.83-2.2s1.57-.51,2.39-.09a3.39,3.39,0,0,1,.5.34c-1-.72-1.74-2-3.5-.79-1.15.78-4.81-3-4.57-4.54s1.41-1.19,2.54-1.3c-1-.7-1.64-1.4-2.31.14-.55,1.29-1.7.86-2.32.09A29,29,0,0,0,368.5,302c-1.93-1.56-1.56-3.17.89-4.26a9.42,9.42,0,0,1-2.92-2.65,2.26,2.26,0,0,0-2.59-.77c-2.16.47-3.35-.59-4-2.47-.18-.51-.32-.93-.94-1.05a7.6,7.6,0,0,1-4.44-3.05c-1.47-1.8-3.3-3.3-4.4-5.41a2.83,2.83,0,0,1,1.18-2q6.53-6.55,13.08-13.08C364.85,266.75,365.33,266.14,366.18,266.19Z" transform="translate(-26.36 -26.17)" style="fill:url(#e)"/><path d="M473.1,258.41c-3.74-1.51-5.53-5.13-8.32-7.67-3.55-3.25-6.53-7-10.13-10.28-4-3.61-7.54-7.76-11.23-11.74a30.84,30.84,0,0,0-3.9-3.85,20.74,20.74,0,0,1-4-4,23.09,23.09,0,0,0-4.16-4.22,15.36,15.36,0,0,1-3.83-4.16c-1.31-2.14-3.72-3.32-5.29-5.21-3.89-4.67-8.58-8.54-12.63-13.07-3.21-3.59-6.43-7.39-10.37-10.36a32.38,32.38,0,0,1-3.53-3.59c0-.72.58-1,1.1-1.25,5.21-2.55,10.24-5.45,15.28-8.32a2.92,2.92,0,0,1,1.26-.37c1.65.65,2.61,2.13,3.68,3.37,5.18,6,11.22,11.19,16.6,17,6.48,7,13.44,13.56,20,20.48,4.08,4.31,8.22,8.55,12.4,12.77a41,41,0,0,0,4.89,4.42,52.87,52.87,0,0,1,2.39,13.16A74.62,74.62,0,0,1,473.1,258.41Z" transform="translate(-26.36 -26.17)" style="fill:#746bad"/><path d="M347.72,412c-3.4-.54-4.19-4.08-6.6-5.78-3-2.1-5-5.29-7.85-7.61-1.18-1-3.54,0-3.71-2.93-.09-1.52-2.36-2.84-3.42-4.39-1.49-2.17-4-3.16-5.57-5.26a33,33,0,0,0-2.89-3.27c-2.12-2.23-4.75-3.27-8-4,3-.87,1.79-1.95.67-3.06-2.57-2.58-5.41-4.86-7.78-7.66-.82-1-1.83-2.67-3.79-1.35-.47.32-1-.4-.56-.91.86-.94.34-1.75-.23-2.33-1.64-1.67-3.42-3.2-5.14-4.79a.74.74,0,0,0-1-.09c-1.36.67-1.77.26-1.09-1.09.52-1-.41-1.4-.89-1.72-2.29-1.52-3.1-4.46-5.63-5.73a1.28,1.28,0,0,1-.54-1.16c-.3-.89.4-1.34.88-1.83q5.7-5.76,11.45-11.45c.5-.49,1-1.15,1.85-.88.39,1.89,1.94,2.9,3.25,4a35.1,35.1,0,0,1,6.14,6.28c.93,1.29,2.46,1.86,3.47,3,4,4.62,8.87,8.32,12.69,13.09a41,41,0,0,0,3.59,3.24c3.08,3,5.88,6.28,9.34,8.9a11.59,11.59,0,0,1,3.43,4.25,2.73,2.73,0,0,0,1.36,1.4c2.47,1.05,4.07,3.08,5.71,5.05a25.19,25.19,0,0,0,3.22,3.31c4,3.4,7.2,7.7,11.31,11Q354.8,405.37,347.72,412Z" transform="translate(-26.36 -26.17)" style="fill:#6b68ac"/><path d="M314.16,91.16c-.84-1.59-2.32-2.59-3.51-3.85-3.2-3.4-6.16-7-9.21-10.58A68.65,68.65,0,0,0,296.51,71a57.82,57.82,0,0,1-6.31-7.28c-1.84-2.4-3.84-4.73-5.9-6.94-4.43-4.74-8.25-10-12.82-14.61-3-3-5.06-6.55-7.88-9.57-1.48-1.59-3.32-2.84-4.55-4.7a2.19,2.19,0,0,1-.49-1.2A75.49,75.49,0,0,1,283,32.56a89.1,89.1,0,0,1,30.39,20.62c8.28,8.44,16.67,16.78,25,25.16-.81,1.14-2.18,1-3.29,1.4-.64.26-1.44.07-2,.69-1.29,1.25-3.1,1.23-4.65,1.8a32.14,32.14,0,0,0-12.19,7.71C315.75,90.53,315.24,91.38,314.16,91.16Z" transform="translate(-26.36 -26.17)" style="fill:#736aad"/><path d="M266,366.44c.11,1.42,1.78,1.82,2.07,3,.5,2,1.65,2.72,3.43,3.72a15,15,0,0,1,4.28,4.05c.81,1.13,2.21,1.32,2.87,2.61a2.8,2.8,0,0,1-3.38.37c-.49-.35-.07-1.18-.76-1.49-.3.81.54,1,.76,1.49.61,2.41,2.76,1,4.09,1.58.89.4,4.33,2.51,4.52,3.42.14.66-.32.7-.77.75-.9.09-1.87-.23-2.75.27a1.26,1.26,0,0,0,1.37,1c1.41,0,2.52.2,2.43,2a.57.57,0,0,0,.54.6c.6,0,.67-.42.74-.87.1-.64.38-1.18,1.1-1.13s.56.66.54,1.17c0,.71.63.71,1.06.9a9.48,9.48,0,0,1,4.6,4.3c-.43.07-.7.12-1,.15-.76.09-1.91-.16-1.71,1.07s1,.61,1.86.47c2.7-.45,4.36.35,5.38,3,.68,1.78,2.72,1.87,3.47,3.33-.38.56-.69.34-1,.11-.5-.4-1-.6-1.58-.13a.91.91,0,0,0-.34,1c.21.67.76,1.4,1.36,1.24,4.13-1.14,5.92,2,8.27,4.27.95.9,2.05,1.52,1.48,3.26-.35,1.07.87,1.25,1.35.64.89-1.13,1.62-.72,2,.13,1.25,2.81,4.07,4.11,6.05,6.52-.92.43-2.48.43-2.27,1.59s1.45,2.08,3.07,2.91c-.7-1.48-.24-2.53.29-3.89,2,2.13,3.89,4.16,5.78,6.2a1.22,1.22,0,0,1,.2,1.24c-.4,1.45.54,1.88,1.65,1.89a3.85,3.85,0,0,1,2.4.91c-3.81,4.4-8,8.39-12.27,12.39-.14.07-.35.14-.41,0-1.44-2.33-3.6-1.56-5.6-1.23-1.15.19-2.12.09-2.55-1.08-.53-1.43.63-1.72,1.62-2.06.48-.17,1.09-.29.95-1-.1-.53-.63-.59-1.07-.54-1.16.11-1.38-.61-1.7-1.54-.59-1.7-1.74-2-3.23-1a3.4,3.4,0,0,1-5-1.57c-.37-1-.1-1.75,1.07-1.93.72-.12,1.46.33,2.17-.1-.45-.59-1.18.14-1.67-.38s-.38-1.22-.4-1.87c0-1.77-1.57-2.37-2.69-3.22-.5-.37-.86.3-1.2.68a3.11,3.11,0,0,1-4.81,0c-.62-.71-.36-1.27.15-1.94,1.82-2.36,1.81-2.37-.21-4.45-.42-.42-.76-.9-1.14-1.35-.74-.86-1.47-1.37-2.06.15a1.71,1.71,0,0,1-2.44,1.16,1.73,1.73,0,0,1-1.17-2.44,4.32,4.32,0,0,0,.17-.87c.54-4.08.52-4.06-3-6.19-1-.58-1.71,0-2.52.18-2.4.47-3.94-.07-5.2-1.86-.7-1-.59-1.62.69-1.82a18.73,18.73,0,0,1,2-.08c.43,0,.95,0,1.12-.48s-.24-.81-.53-1.14a36.72,36.72,0,0,0-2.73-2.56c-1.07-1-2.08-1.49-3.35-.05-1,1.18-4.79,0-5.23-1.45-.19-.62.13-1,.65-1.21a12.16,12.16,0,0,1,2.61-.65c-.62-2.48-3.5-3.07-4.43-5.65-1,2.27-2.75,2.15-4.48,1.76s-2-1.59-.8-2.84c2.09-2.11,2-2.72-.42-4.17a4.45,4.45,0,0,1-1.26-1.48,3.19,3.19,0,0,0-4.57-.84c-.79.62-1.37.9-1.9-.15s-1.68-2.38-.08-3c2.15-.82,1.7-1.82.87-3.18a1.55,1.55,0,0,1,.43-1.21c3.56-3.75,7.25-7.39,11-11A1.17,1.17,0,0,1,266,366.44Z" transform="translate(-26.36 -26.17)" style="fill:#716aad"/><path d="M306.13,453c-1.37,1-2.25.46-3.49-.59-4-3.35-7.46-7.18-11.21-10.73a123.05,123.05,0,0,1-9.7-9.81,61.31,61.31,0,0,0-5.13-4.8c-2.24-2.11-4-4.71-6.39-6.66-4-3.33-7.2-7.42-11.21-10.78a92.2,92.2,0,0,1-9.26-9.28,25.28,25.28,0,0,0-4.32-4.07c-2.06-1.43-3.36-3.65-5.11-5.39-6.58-6.53-13.16-13.05-19.91-19.4-1.65-1.56-3.13-3.25-4.73-4.85-7.59-7.57-15-15.33-22.78-22.68-9.67-9.12-18.86-18.7-28.34-28q-13.76-13.47-27.45-27-15.37-15.13-30.73-30.29c-4.79-4.74-9.49-9.58-14.32-14.29-6.14-6-12.54-11.7-18.48-17.86-5.6-5.81-11.35-11.47-17-17.24a148.52,148.52,0,0,0-10.81-10.33,2.76,2.76,0,0,1-1.27-2.43,13.57,13.57,0,0,1,2.68-3.44A2.39,2.39,0,0,0,48,195c4,4.13,7.89,8.34,12,12.25,10.5,10,20.78,20.11,31,30.32,4.2,4.19,8.29,8.51,12.61,12.57,12.53,11.76,24.23,24.36,36.69,36.18,8.58,8.15,16.91,16.55,25.21,25,5.39,5.47,11.12,10.57,16.54,16q11.86,11.9,23.77,23.75c5.55,5.51,11.35,10.76,16.73,16.43,3.42,3.6,7,7.13,10.51,10.56,5,4.82,9.68,9.95,14.93,14.54a63.57,63.57,0,0,1,9.09,9.17c1.21,1.61,3.13,2.67,4.46,4.21,3.79,4.39,8.13,8.23,12.18,12.34s8.46,8.07,12.61,12.16c4,4,8.12,7.79,11.93,12,2.89,3.16,6.24,5.94,8.95,9.32Z" transform="translate(-26.36 -26.17)" style="fill:#736aad"/><path d="M253.71,378.86c.31.4.66.78.95,1.2.75,1.08,1.09,1.78-.82,2.1-3.44.59-.34,2.23-.57,3.61,2.16-2.48,5.2-2.06,6.61.72a1.49,1.49,0,0,0,1.16.79c.92.27,2,.55,1.9,1.79s-.1,2.41-1.41,3c-.57.24-1.19.43-1.11,1.15a1.21,1.21,0,0,0,1.46,1c1.1-.32,3.19,1.43,3.21-1.42,0-.4.63-.58,1.08-.62s.79.37.75.85a1.64,1.64,0,0,0,1.14,1.71c1.78.84,2.26,3,4.08,4-1.19.82-2.61.27-3.74.87-.3.16-.8.07-.81.55s.35.59.69.75c.66.32,1.31.65,1.93,1,.86.52,1.74.4,2.07-.45.84-2.19,2.27-1.22,3.27-.52a29,29,0,0,1,4,3.7,1.46,1.46,0,0,1,.48,1.6c-.27.61-.88.42-1.37.43-1.1,0-2.2,0-3.34,0,1.39,2.93,3.28,3.73,6.15,2.33,1.15-.57,1.71-.56,2.19.59.24.56.82.55,1.26.79,1.78.92,3.1,1.92,1.8,4.28-.46.82,0,2-.55,3.06-.33.6.75.94,1.34,1.15.77.29,1.27-.09,1.47-.86s.06-1.85,1.11-1.86a2.69,2.69,0,0,1,2,1.53,8.06,8.06,0,0,0,1.43,1.66c1.86,1.67,1.84,2.94-.27,4.64-.86.69-.76,1.15.14,1.6,1.65.81,3.33,1.84,4.11-1a1,1,0,0,1,1.06-.63c1,.09,3.59,3.4,3.38,4.47s-.31,1.92,1.19,1.19c.65-.31,1.38-.59,1.55.38.13.73-.56,1.2-1.23,1.31A4.31,4.31,0,0,1,302,431c-.51-.09-1.07-.26-1.36.33a1,1,0,0,0,.38,1.35c1.38,1.19,2.63,2.83,4.43.44.35-.46,1.24-1.14,1.91-.38.84,1,2.82,1.3,1.74,3.17.68.37,1,0,1.45-.08a1.33,1.33,0,0,1,1.65,1.09,1.3,1.3,0,0,1-1.27,1.64c-.78.06-2.09-.12-1.91,1.15s1.32,1.26,2.41.87,2.24.25,3.29-.71c.49-.46,1.19.35,1.48.94s.35,1.29,1.08,1.56c-1.49,1.62-2.79,3.46-4.83,4.5a3.49,3.49,0,0,0-1.52-1.52,16.41,16.41,0,0,1-4.59-4.32c-1.76-2.44-4.35-4.06-6.6-6a28.31,28.31,0,0,1-3-3.09c-1.79-2.11-4.62-3.11-6-5.45-1.08-1.87-2.91-3-3.95-4.81-1.26-2.2-3.48-3.58-5.39-5.06-2.27-1.77-3.49-4.76-6.52-5.6-.87-3.11-3.34-5-5.75-6.66s-3.92-4.15-6.16-5.88c-4.4-3.41-7.12-8.51-11.87-11.54A3.1,3.1,0,0,1,250,385.9c-1.74-3.48-5.35-5.1-7.74-7.91a56.14,56.14,0,0,0-6.56-6.25c-4.73-4-8.18-9.35-13.28-13a8.94,8.94,0,0,1-1.52-1.86,3.13,3.13,0,0,0-3.88-1.18,2.43,2.43,0,0,1-2.87-.59c.13-.16.23-.39.39-.45,2.92-1.17,3.18-1.63.8-3.68-4.49-3.88-8.67-8.09-12.82-12.28-3.62-3.65-7.48-7.08-11-10.89a113.81,113.81,0,0,0-10.2-9.92,76.87,76.87,0,0,1-8.12-8.43c-2.1-2.4-4.67-4.21-6.86-6.46a27.48,27.48,0,0,1-2.1-1.92c-1.19-1.51-2.48-2.39-4.51-1.7-.64.21-1.66.31-2-.52-.37-1,.81-.83,1.27-1.06,1.31-.66.81-1.42.18-2.09a57.52,57.52,0,0,0-4.21-4.2,111.88,111.88,0,0,1-13-13,39.92,39.92,0,0,0-3.28-2.92c-3.48-3.3-6.75-6.79-10.3-10a178.29,178.29,0,0,1-15.21-15.4c-2-2.33-4.71-3.93-6.57-6.46-.91-1.23-2.59-.72-4-.79-.63,0-1.56.26-1.77-.49-.27-1,.84-.75,1.35-1,1.51-.81.49-1.62,0-2.26-1.46-1.73-3.34-3-5-4.62-4.34-4.24-9.07-8-13-12.77-1.33-1.61-3.74-2.71-4.83-4.24-2.18-3.06-5.46-4.92-7.52-7.9s-5-4.62-7.38-7.13c-2.72-2.94-5.59-5.75-8.46-8.54-1.59-1.55-3.33-3-5-4.42.25-1.65,2.06-2.16,2.63-3.57l.44-.43a2.69,2.69,0,0,0,1.13,2.26l63.06,63a10.71,10.71,0,0,0,1.21.92c1.28.22,1.48,1.52,2.23,2.27,6.47,6.42,12.9,12.88,19.36,19.31a9.73,9.73,0,0,0,1.38,1.09c2.21,2,4.19,4.15,6.32,6.19,1.12,1.17,2.29,2.28,3.41,3.44a4.77,4.77,0,0,1,.56.7c.2.33.38.68.59,1a11.15,11.15,0,0,0,3.3,3.26,63.31,63.31,0,0,1,4.91,4.92,9.45,9.45,0,0,0,3.05,3.05,61,61,0,0,1,4.89,4.89,9.39,9.39,0,0,0,3.06,3.05,64.59,64.59,0,0,1,4.89,4.9,9.45,9.45,0,0,0,3,3.05,72.44,72.44,0,0,1,5.33,5.33,9.45,9.45,0,0,0,3,3,61,61,0,0,1,4.89,4.89,9.39,9.39,0,0,0,3.06,3,64.33,64.33,0,0,1,4.88,4.89,9.52,9.52,0,0,0,3.06,3.06,59.38,59.38,0,0,1,4.89,4.89,11.93,11.93,0,0,0,3.49,3.48,62.8,62.8,0,0,1,4.89,4.9,9.39,9.39,0,0,0,3.06,3.05,64.33,64.33,0,0,1,4.88,4.89,9.39,9.39,0,0,0,3.06,3.05,62.8,62.8,0,0,1,4.89,4.9,9.45,9.45,0,0,0,3.05,3.05c1.85,1.68,3.62,3.43,5.3,5.29a8.48,8.48,0,0,0,1.84,2.16,4.94,4.94,0,0,0,1.5.88C248.09,380.24,250.87,379.71,253.71,378.86Z" transform="translate(-26.36 -26.17)" style="fill:#7169ad"/><path d="M153.12,86.74H154c1.07-.63,1.8.18,2.62.61a2.13,2.13,0,0,1,.42.48c1.2,2.7,4,4,5.54,6.5.48.79,1.66.23,2.46-.11s1.76-1,1.57-2.14.39-2.31.28-3.49a.93.93,0,0,1,.58-1.08c.63-.19.91.3,1.17.76l.2.39c.79,1.71.93,4,3.69,3.93.55,0,1,.79,1.45,1.29a2.56,2.56,0,0,1,0,3.44c-1,1.4-1.91.24-2.9-.34-.65,1.46-2.06,2.43-1.09,4.39,2,4,1.91,4.1,3.7,4.39-1.17-.52-2.56-.74-2.14-2.39.23-.88,2.68-2.13,3.52-1.9.29.09.71.27.63.52-.56,1.73,1.39,2.78,1.15,4.39.4-2.75,1.77-3.92,3.81-3.28a1.59,1.59,0,0,1,1.28,1.59c0,.83-.65.83-1.27.81-.1,0-3.76,4.55-3.77,4.65a1,1,0,0,0,1.53,1.14c.63-.26.79-.2,2.16.88.34-.67.14-1.44.45-2.06.46-.91.86-2.11,2.17-1.7a1.78,1.78,0,0,1,1,2.56c-.94,2.21-.45,4.34.07,6.49.2.79.13,2,1.42,1.87s1.56-.94,1.45-2.06c-.16-1.78.83-2.18,2.35-1.92.36.06.71.17,1.07.25,2.36.59,2.68,1.27,1.54,3.38-.17.31-.45.57-.43,1a.29.29,0,0,0,.31.25c1.07-.1,2.36-.64,2.9.75s-.89,1.82-1.65,2.51-1.51.92-2.4,1.71c3-.27,1.94,2.29,2.66,3.52.56-.08.61-.38.63-.67.17-1.83,1.11-2.88,3-2.71,1.11.1,2-1.26,3.13-.44s1.35,2.23,2.12,3.31a1.72,1.72,0,0,1-.46,2.53c-.84.64-1.54.1-2.09-.55s-1.33-1.34-2.19-.44-2.65,1.8-2,2.47c1.65,1.71,1.93,4.63,4.62,5.34a2.6,2.6,0,0,1,2.29,2.75c0,.52.24,1.31,1,1.12s.46-.84.39-1.33c-.17-1.19,0-2,1.49-2,1.28,0,2.44,0,2.22,1.8-.09.81.65,1.5.39,2.35-1.09,1.76-2.33,3.42-3.48,5.13a4.48,4.48,0,0,0-1.2,2.37c-1.29,2.41-2.06,5.14-4.38,6.9,0-1.66-1.2-2.67-2.14-3.7a187,187,0,0,1-12.73-15c-1-1.38-2.52-2.15-3.61-3.48-4.13-5-8.54-9.79-12.76-14.73-5.47-6.38-10.84-12.84-16.28-19.25-1.23-1.45-2.55-2.83-3.82-4.25S145.2,95,143.86,96A124.6,124.6,0,0,1,153.12,86.74Z" transform="translate(-26.36 -26.17)" style="fill:#6a68ac"/><path d="M350.29,282.07c2.47,2.56,4.25,5.78,7.37,7.73a1.85,1.85,0,0,0,1.58.43c1-.24,1.21.32,1.22,1.26a2.36,2.36,0,0,0,2.93,2.32c1.83-.36,3.4-.17,4.15,1.83.32.82,1,1,1.73,1.18a1.4,1.4,0,0,1,1.07,1.49c-.16.89-.87.37-1.42.33-1.13-.09-1.39.45-1.05,1.52a3.06,3.06,0,0,0,1.39,1.88c1.44.86,2.88,1.68,3.65,3.33a1.49,1.49,0,0,0,1.57,1c.79-.18.53-.94.57-1.48.07-.76.35-1.22,1.07-.6s2.08.6,2.12,2.08l-1.05.11c-.62.08-1.43-.24-1.63.7a1.92,1.92,0,0,0,.66,1.79c.68.66,1.41,1.28,2.13,1.9s1.59,1.07,2.19-.32c.48-1.1,1.22-1.21,1.49.07s1,1.48,2,1.62c.43.06,1,.18.81.76s-.78.62-1.28.34c-.68-.39-1.12-1.21-2.07-1.12-.36,0-.77,0-1,.35s0,.65.27.95c1.39,1.55,3.29,2.5,4.7,4.06.68.75,1.61.43,2.21-.49a1,1,0,0,1,1.18-.41c.83.25.1.64.05,1-.17,1.13.65,1.12,1.39,1.17s1.2.17,1.38.85-.28,1.06-.81,1.39c-1,.63-.72,1.05.06,1.8,2,1.9,4,3.57,7,3.32a1.14,1.14,0,0,1,1.28,1.4c-.12,1-.55,1.75-2.08.82.86,1.7,2.66,1.74,3.08,3.29.16.6,1.18.36,1.83.35,1.16,0,.18-1.09.67-1.43,4.09,1.91,3.49,3,1.6,5.1.88.62,2.38,0,2.82,1.29.32.91-.08,2.07.83,2.75.52,0,.49-.33.65-.55.46-.64,0-1.91.93-2s1.1,1,1.41,1.72c.22.55.76.62,1.29.69a2.15,2.15,0,0,1,1.63,1.33,2.84,2.84,0,0,1,.2,2.72.82.82,0,0,1-.76.19c-.91-.35-.75-1.35-1.14-2s.43-1.75-.88-1.54c-.57.09-1.22-.46-1.64.11s-.06,1.28.26,1.85c.91,1.59,2.68,2.23,3.89,3.5a55.5,55.5,0,0,1-7,7.08c-1,0-2.07-2-3.1.18-.17.37-.92-.53-.87-1.11.2-2.29-1.27-2.31-2.85-2.12-.66.08-1.31.25-1.87-.23s-.73-.78.1-1.1c.59-.23,1.81.46,1.68-.73-.11-1-.63-2.44-1.75-2.61-2.29-.36-2.85-2.22-3.74-3.75s-2.05-2.65-4.06-2a4.28,4.28,0,0,1-1.08.18c-1,.06-2,.11-2.49-.95s1.21-.84,1.23-1.9c-1.34-.08-1.52-1-1.57-2.21-.07-1.9-1.39-2.67-3.12-1.93a5.13,5.13,0,0,1-2.58.35,2.35,2.35,0,0,1-2.08-2.24c-.19-1.12.75-1.22,1.61-1.28.65,0,1.12-.46.47-.93-.88-.66-1-1.76-1.8-2.45-1-.84-1.6-1.82-3.33-.85a3.16,3.16,0,0,1-4-1.33c-.72-1.19-2.39-2.42-.26-3.86.34-.23.35-.55.24-1-.46-1.66-3.64-4.11-5.47-4.15-.51,0-1.14-.09-1.34.5s.41.87.81,1.14.79.4,1.14.67a.6.6,0,0,1,.11.95.52.52,0,0,1-.78.05c-1.14-1.31-2.82-2-3.66-3.69-.58-1.14-.46-1.44.74-1.4s1.22-.56.8-1.49c-1.39-3.13-2.7-3.95-6.24-3.81a4.49,4.49,0,0,1-1.1,0c-.78-.15-2,.54-2.2-.76s1.07-.84,1.73-1.08c1.09-.39,1.58-1,.4-1.77a6.18,6.18,0,0,1-1.83-2.11c-.8-1.31-1.68-2.43-3.53-1.19-1.37.92-2.18-1.24-3.66-.59l0-.6a6.22,6.22,0,0,0,1.45-.51c.51-.32,1.84,0,1.36-1.17-.35-.89-1-2.17-2.24-1.55-1.42.71-1.67,0-1.73-1-.11-2.1-1.46-2.39-3.07-2.08-1.35.26-2.45.18-3.19-1.13,0-.61.4-.89.92-1.05.85.09,1.34-.17,1.09-1.14A28.54,28.54,0,0,1,350.29,282.07Z" transform="translate(-26.36 -26.17)" style="fill:#5f5ea6"/><path d="M308.42,324.57c0,1,.86,1.5,1.46,2.11,5.54,5.54,11.17,11,16.8,16.45,9.31,9,18.36,18.33,27.57,27.48,4.75,4.71,9.63,9.3,14.38,14,1.14,1.13,1.94,2.6,3.81,2.62a66.62,66.62,0,0,1-6.62,6.61,4.63,4.63,0,0,1-1.43.56c-2.43.7-2.45.7-2.14-1.8.17-1.32-.64-1.72-1.57-1.33-4.71,2-5.84-2.74-8.45-4.56-1.06-.75-.35-2.1,1-2.32.58-.09,1.16.2,1.95,0a2.92,2.92,0,0,0-2.18-1.24c-2.84-.14-4.12-1.79-5-4.32-.46-1.36-2-2.15-3.23-3-1.39-1-3.37-1.24-3.91-3.34-.48.68-.67,1.62-1.66,1.16a2,2,0,0,1-1.29-2.3,6.27,6.27,0,0,0,.29-2.79c-.37-1.89-1.41-2.6-3.1-1.67-1.28.7-2.2.82-3.35-.15a4.67,4.67,0,0,1-1.65-4.31c.08-.91,1.09-1.76.36-2.7a7.35,7.35,0,0,0-3.51-2.9c-.7-.23-1.34-.59-2-.83-1.88-.67-3.19-1.78-3.4-3.89-.09-.84-.51-1.15-1.42-1.31-2.53-.44-3.58-1.58-3.82-3.73-.39.31-.28.79-.43,1.18a1.15,1.15,0,0,1-1.11.9,2.38,2.38,0,0,1-1.94-1.28c-.59-.92-.19-1.58.5-2.31,1.16-1.2.83-2.28-.78-2.67a10.51,10.51,0,0,0-2.81-.46c-1.84.07-3-.94-4.14-2.14-.89-.95-1.45-1.85-.47-3.07a1.27,1.27,0,0,0,0-1.8,1.73,1.73,0,0,0-2-.35c-2.66,1.06-2.82,1-4.22-1.49.15-1.58,1.5-2.24,2.46-3.19,2.15-2,3.8-4.6,6.5-6A.9.9,0,0,1,308.42,324.57Z" transform="translate(-26.36 -26.17)" style="fill:#6a68ac"/><path d="M470.89,228.35a2.81,2.81,0,0,1-2-.82c-2.9-2.69-5.79-5.42-8.46-8.3-2.37-2.56-4.79-5.1-7.19-7.61-10.61-11.08-21.5-21.89-32.24-32.85-2.6-2.65-5-5.46-7.56-8.2-.2-.64.3-.94.69-1.2,2.76-1.88,5.44-3.85,8.18-5.74a2,2,0,0,1,1.23-.37c1,.89,1.39,2.28,2.64,2.91,4.08,4,8.2,8,12.23,12,6.55,6.62,13.48,12.89,18.91,20.55a88.44,88.44,0,0,1,13.2,27.65A17.92,17.92,0,0,1,470.89,228.35Z" transform="translate(-26.36 -26.17)" style="fill:#756aad"/><path d="M299.14,333.34c.52.61,1.05,1.22,1.56,1.83s.86.71,1.44-.12c1-1.36,2.37-1.06,3.44-.19a1.69,1.69,0,0,1-.06,2.83c-.83.68-.48,1.06,0,1.79,1.6,2.45,4.14,2.48,6.57,2.7A2.59,2.59,0,0,1,314.7,344c.52,1.4-.38,1.66-1.21,2.11-.54.28-.81.71-.45,1.25s.91,1.44,1.84,1.38c.69-.05.58-.74.6-1.24s0-1.06.44-1.41a1.53,1.53,0,0,1,.8-.2c.06,0,.16.33.19.52.46,2.9,1.07,3.45,3.84,3.52a1.24,1.24,0,0,1,1.27,1.28c-.26,3.68,2.69,4.24,5.08,5,2,.66,2.91,2.36,4.34,3.56.52.44.07.88-.17,1.35-1.21,2.27-.8,3.89,1.24,5.43.62.47.92.86,1.77.09a2.65,2.65,0,0,1,3.76-.21,4,4,0,0,1,.69,4.28c-.25.65-.62,1.11-.16,1.74.29.41.59.95,1.16.86s.41-.68.47-1.09-.14-1,.45-1.08.88.53.83,1c-.16,1.57,1.06,1.66,2,2.09,1.77.78,2.88,2.66,4.92,3.05.38.07.43.5.43.9,0,2.64,1.39,3.95,4.13,4.19,1.2.11,2.05,1.07,3.08,1.61a.49.49,0,0,1,.18.75,1.2,1.2,0,0,1-1.17.41c-1-.08-2.32-1-2.76.23s1,2,2,2.48c1.15.59,1.41,1.81,2.21,2.65,1.24,1.31,2.47.37,3.72.21,2.83-.37,3.35.29,2.3,2.88a13.68,13.68,0,0,1-.8,1.31,5.46,5.46,0,0,1,4.07-1.09,28.36,28.36,0,0,1-4.42,4.41,23.57,23.57,0,0,1-6.95-5.92,47.11,47.11,0,0,0-4.95-4.94c-1.7-1.48-3.07-3.34-4.64-5-1.21-1.26-2.33-2.64-4.15-3.14a2.07,2.07,0,0,1-1.15-1,17.25,17.25,0,0,0-7.5-7.75c-1.2-.68-1.48-2.16-2.5-3-5.14-4.33-9.58-9.39-14.3-14.13-3.23-3.23-6.8-6.16-9.71-9.75-2-2.48-4.62-4.49-7-6.66a1.85,1.85,0,0,1-.72-2.28C297.69,333.72,298.21,333.34,299.14,333.34Z" transform="translate(-26.36 -26.17)" style="fill:#6a68ac"/><path d="M426.19,166.17c-1.59-.19-1.84-1.73-2.67-2.69-.07-1.23.88-1.79,1.66-2.4a34.65,34.65,0,0,0,8.69-10.37,15.24,15.24,0,0,0,1-13.74,3.28,3.28,0,0,1-.43-2.31,5,5,0,0,0,.57-3c-.22-2.69.14-5.37.12-8.06,9.59,8.13,11.67,17.47,3.94,27.69-3.36,4.45-7.67,7.85-12.2,11C424.45,164,424.43,164,426.19,166.17Z" transform="translate(-26.36 -26.17)" style="fill:#7c6cae"/><path d="M371.11,84A30.59,30.59,0,0,1,381,96.86a14.49,14.49,0,0,0,.71,1.35c.59,2.39.18,4.8,0,7.2a1.53,1.53,0,0,1-1.82,1.52c-2.28-.42-4.67-.58-6.64-2.05-1.18-2.29-2.65-4.48-2.74-7.2a6.93,6.93,0,0,0,.84-4C371.34,90.44,371.39,87.19,371.11,84Z" transform="translate(-26.36 -26.17)" style="fill:#5e5da5"/><path d="M371.11,84a5.28,5.28,0,0,1,.87,3.49c-.22,3.24.36,6.52-.4,9.75-.18.76-.46.77-1,.6-.63,0-.86-.46-1.13-.88A42.21,42.21,0,0,0,364.15,90a1.82,1.82,0,0,1-.71-1.73c.68-1.82.36-3.71.44-5.57a8.11,8.11,0,0,1,.38-2.77l.21-.27A19,19,0,0,1,371.11,84Z" transform="translate(-26.36 -26.17)" style="fill:#5a5aa3"/><path d="M387.85,101.21a94.78,94.78,0,0,1,14.56,4.53c.58,2.08.13,4.2.25,6.3.06,1.11-.84,1.63-2,1.37a9.92,9.92,0,0,0-2.58-.51c-2.3-.46-4.45-1.44-6.72-2-.62-.15-1.3-.36-1.39-1.2,1.23-1.68.79-3.61.77-5.46,0-.83-.63-1.22-1.31-1.57S387.74,102.37,387.85,101.21Z" transform="translate(-26.36 -26.17)" style="fill:#6b68ac"/><path d="M435.1,123.63a4.43,4.43,0,0,1,.54,3.46,21.11,21.11,0,0,0,0,5.21c.05,1.07,0,2-1.11,2.56-.49,0-.62-.37-.77-.73a2.62,2.62,0,0,0-1.37-1.68c-2.2-1.72-3.92-3.95-6.08-5.71-.46-.38-.85-.85-.43-1.51,1-1.68,1-3.55,1.09-5.41,0-.78-.3-1.58.19-2.31A31.61,31.61,0,0,1,435.1,123.63Z" transform="translate(-26.36 -26.17)" style="fill:#7a6bad"/><path d="M387.85,101.21a.81.81,0,0,0,.12.18c1,.87,3,.41,3.26,1.84a26.81,26.81,0,0,1,.13,5.46c0,.94-.69,1-1.37,1a1.83,1.83,0,0,1-1.87.17q-6.6-1.78-13.2-3.5c-.92-.23-2.2-.43-1.62-2,2,1.41,4.38,1.44,6.6,2.06,1.21.34,1.33-.8,1.33-1.72a25.84,25.84,0,0,1,.44-6.51C383,100.71,385.83,100.13,387.85,101.21Z" transform="translate(-26.36 -26.17)" style="fill:#6463a9"/><path d="M398,112.33a5.31,5.31,0,0,1,2.55.46c1.48.54,1.86-.1,1.62-1.45a11.67,11.67,0,0,1,.26-5.6A31.58,31.58,0,0,1,409,108.3c1,.75,2.81.65,3.06,2.18a14.8,14.8,0,0,1,0,6.11,1.35,1.35,0,0,1-1.08,1c-1.92.12-3.48-1-5.19-1.58-2.06-.71-4.09-1.56-6.15-2.29C399,113.45,398,113.43,398,112.33Z" transform="translate(-26.36 -26.17)" style="fill:#7069ad"/><path d="M427.14,117.51c1.06,2.44,0,4.86-.07,7.29,0,.82-.77.72-1.33.78-3.09-1-6.09-2.23-8-5.14.49-1.74.46-3.55.81-5.31.16-.77.16-1.61,1.07-2A33.6,33.6,0,0,1,427.14,117.51Z" transform="translate(-26.36 -26.17)" style="fill:#766aad"/><path d="M419.64,113.17a24.91,24.91,0,0,0-.9,5.69c-.06.74.28,1.68-.92,1.86a10,10,0,0,1-7.12-3.5c.58-.06,1-.33,1-1,0-1.94.12-3.91-.07-5.84-.13-1.34-2-1.07-2.56-2.12A49.37,49.37,0,0,1,419.64,113.17Z" transform="translate(-26.36 -26.17)" style="fill:#736aad"/><path d="M333.19,80.15c1.44-1.51,3.54-1.08,5.24-1.81l1.2,0c1-.4,2.11.12,3-.59a71.82,71.82,0,0,1,12.09-.48,5,5,0,0,1,2.73.56c1,2.47.6,4.52-1.19,5.81a6.65,6.65,0,0,1-3.35-.9,35,35,0,0,0-17.23-2.22C334.83,80.57,334,80.85,333.19,80.15Z" transform="translate(-26.36 -26.17)" style="fill:#5256a0"/><path d="M357.4,77.91c-3.9-.82-7.84-.53-11.76-.22-1.08.08-2.17.13-3.26.26a.3.3,0,0,1-.49-.08c7.69-1.49,15.3-1.93,22.58,1.78l0,.06C361.78,80.32,359.67,78.8,357.4,77.91Z" transform="translate(-26.36 -26.17)" style="fill:#5a5aa3"/><path d="M53.79,186c-.16,1.71-2,2.19-2.63,3.57l-1.91,1.29A28.64,28.64,0,0,1,53.79,186Z" transform="translate(-26.36 -26.17)" style="fill:#736aad"/><path d="M307.53,451.69a4.5,4.5,0,0,1,2.56-2.23A4.57,4.57,0,0,1,307.53,451.69Z" transform="translate(-26.36 -26.17)" style="fill:#736aad"/><path d="M341.89,77.87l.49.08c-.84.72-1.83.29-2.75.35A3.78,3.78,0,0,1,341.89,77.87Z" transform="translate(-26.36 -26.17)" style="fill:#5557a1"/><path d="M454.52,304.37c-.06-1,.56-1.46,1.31-1.87A2.73,2.73,0,0,1,454.52,304.37Z" transform="translate(-26.36 -26.17)" style="fill:#6f69ad"/><path d="M40.59,262.65A2.3,2.3,0,0,1,39.41,261a.93.93,0,0,1,1-1,1.35,1.35,0,0,1,1.06,1.47A1,1,0,0,1,40.59,262.65Z" transform="translate(-26.36 -26.17)" style="fill:#766aad"/><path d="M34,254.55c-.14.48.29,1.34-.56,1.37s-.78-.72-.76-1.31-.21-1.33.61-1.38S33.87,254,34,254.55Z" transform="translate(-26.36 -26.17)" style="fill:#766aad"/><path d="M241.29,460.25c-.09.43-.33.63-.75.45s-.85-.32-.87-.84a.56.56,0,0,1,.68-.62A1,1,0,0,1,241.29,460.25Z" transform="translate(-26.36 -26.17)" style="fill:#766aad"/><path d="M146.77,367.52a1.1,1.1,0,0,1-.85-1.18.72.72,0,0,1,.49-.19C147,366.38,147,366.88,146.77,367.52Z" transform="translate(-26.36 -26.17)" style="fill:#766aad"/><path d="M139.08,360.13c-.1-.17-.32-.38-.35-.62s.28-.45.58-.42.46.29.47.6S139.54,360.16,139.08,360.13Z" transform="translate(-26.36 -26.17)" style="fill:#766aad"/><path d="M196,415.63a1.6,1.6,0,0,1,.24.54c0,.23-.17.43-.4.24a.91.91,0,0,1-.22-.56S195.85,415.73,196,415.63Z" transform="translate(-26.36 -26.17)" style="fill:#766aad"/><path d="M130.23,185.57c1.36,0,3.05-.13,3.12,1.35,0,1-1.73,1.16-2.76,1.22s-2.45-.55-2.47-1.72C128.08,184.87,129.6,185.91,130.23,185.57Z" transform="translate(-26.36 -26.17)" style="fill:#605ea6"/><path d="M96.56,145.36c.64,0,2.74,2.7,2.54,3.28a1,1,0,0,1-1.21.67A3.32,3.32,0,0,1,95,146.45C94.66,145,96,145.62,96.56,145.36Z" transform="translate(-26.36 -26.17)" style="fill:#605ea6"/><path d="M151.9,208.54c.86,0,2.93,2.26,2.81,3.11-.1.61-.61,1.25-1.16,1.1-1.59-.46-2-2-2.55-3.32C150.76,208.78,151.31,208.55,151.9,208.54Z" transform="translate(-26.36 -26.17)" style="fill:#605ea6"/><path d="M121.08,174.69c.51,1.22-.84,1.73-.69,2.73.06.37-.35,0-.52-.1-.35-.13-.65-.35-.29-.79Z" transform="translate(-26.36 -26.17)" style="fill:#605ea6"/><path d="M125.49,180.24c-.43-.05-.81-.23-.79-.64a.56.56,0,0,1,.79-.49c.31.11.76.39.77.61C126.29,180.14,125.82,180.2,125.49,180.24Z" transform="translate(-26.36 -26.17)" style="fill:#605ea6"/><path d="M125.42,177.25c-.12.43-.44.39-.69.35s-.42-.24-.4-.33a.49.49,0,0,1,.64-.39C125.15,176.93,125.29,177.13,125.42,177.25Z" transform="translate(-26.36 -26.17)" style="fill:#605ea6"/><path d="M333.19,80.15A37.54,37.54,0,0,1,356,83.24c2,.26,3.42,1.6,5,2.65a10.9,10.9,0,0,0,1.78,1.46,1.52,1.52,0,0,1,.74,1.18,45.11,45.11,0,0,1,7.06,9.26c.91,2.19,1.83,4.39,2.74,6.59-.06.73.36,1.07,1,1.23L390,109.7l8,2.63,12.72,4.89,7.12,3.5,7.92,4.86,7.05,6.62a6.31,6.31,0,0,1,1.34,1.89.75.75,0,0,0,.38.77c4.75,9.22.76,16.46-5.31,23.16-1.76,1.94-3.78,3.65-5.68,5.46l-10.07,7.09-17.77,9.67-22.93,9.7-15.36,5.38a23,23,0,0,1-4.24,2.32c-15.36,7.3-26.47,19.06-35,33.47-9.21,15.55-14.36,32.47-16.52,50.34a154.29,154.29,0,0,0-1.37,22.62c.2,7.41.63,14.81,1.53,22.18.18,1.45.85,3-.11,4.45a13.19,13.19,0,0,0-2.53,2.64l-1.31,1.39q-7.31,6.81-14.12,14.12-6.7,6.61-13.41,13.21c-1.44,1.44-2.84,2.92-4.26,4.38-4.2,4.05-8.4,8.1-12.33,12.42-3.29,2.14-4.84,2-8.41-.89a13.09,13.09,0,0,1-1.49-1.3,21.19,21.19,0,0,1-1.58-1.7l-5.39-5.39a24.84,24.84,0,0,1-3-3l-4.95-4.95a25,25,0,0,1-3-3L221,353.7a23.62,23.62,0,0,1-3-3L213,345.75a30.12,30.12,0,0,1-3.44-3.43l-5-4.95a25,25,0,0,1-3-3l-4.94-4.94a24.29,24.29,0,0,1-3-3l-4.94-4.95a24.21,24.21,0,0,1-3-3l-5.39-5.39a25,25,0,0,1-3-3c-1.64-1.65-3.29-3.29-4.94-4.94a23.62,23.62,0,0,1-3-3l-4.95-5a24.84,24.84,0,0,1-3-3l-4.95-5a31,31,0,0,1-3.44-3.44.9.9,0,0,1-.37-.92c.83-1.22,2.06-2.11,2.8-3.4a34.47,34.47,0,0,0,4.3-5,21,21,0,0,0,3.22-3.82c1.85-2.05,3.1-4.53,4.68-6.77a17.7,17.7,0,0,0,3.23-4.68,84,84,0,0,0,5.14-9,50,50,0,0,0,4.9-10,85.88,85.88,0,0,0,4-12.51A161.22,161.22,0,0,0,189.05,207c1-8.76,1.2-17.56,1.59-26.36a16.17,16.17,0,0,1,.42-4.32c2.22-6.76,5.22-13.19,8-19.73l3.94-7.09a17.82,17.82,0,0,1,1.33-2.32,30.47,30.47,0,0,1,3.49-4.95,13.45,13.45,0,0,1,4.44-5.57,113.42,113.42,0,0,1,17.28-15.78c1.9-1.36,3.76-2.76,5.64-4.14,2.33-.73,4.23-2.25,6.34-3.39a135.85,135.85,0,0,1,31.93-12c.63-.16,1.26-.35,1.89-.52,1.12-1.27,2.7-.4,4-.87v0c4.95-.46,9.81-1.51,14.76-2,4.73-.47,9.48-.64,14.21-1a3.29,3.29,0,0,0,3-1.79c.85-1.44,1.93-2.75,2.9-4.11A37.9,37.9,0,0,1,333.19,80.15Z" transform="translate(-26.36 -26.17)" style="fill:#fff"/><path d="M269.8,96.81c1.11.59,2.63-1.35,3.26.31.27.71-1,1.83-.06,3.06C271.14,99.56,270.48,98.23,269.8,96.81Z" transform="translate(-26.36 -26.17)" style="fill:#716aad"/><path d="M279.33,100a11.71,11.71,0,0,1-4,.87c-.1-1.08.47-1.46,1.45-1.32S278.48,99.84,279.33,100Z" transform="translate(-26.36 -26.17)" style="fill:#716aad"/><path d="M189.58,55c.49.09.9.31.87.83a1,1,0,0,1-1,1c-.51,0-.63-.52-.63-1S189,55,189.58,55Z" transform="translate(-26.36 -26.17)" style="fill:#6b68ac"/><path d="M256.82,74.06c.12-.56-.4-1.5.48-1.66.65-.12,1.2.62,1.44,1.19a9.52,9.52,0,0,0,1.36,2.22c.29.35.71.84.19,1.35a1,1,0,0,1-1.23.1C257.65,76.67,256.31,76,256.82,74.06Z" transform="translate(-26.36 -26.17)" style="fill:#6f69ad"/><path d="M227,41.74c1.25,0,2.09,0,2,1.16a2.17,2.17,0,0,1-1.95,2c-.85,0-1.72-1.35-1.73-2.19S226.54,41.78,227,41.74Z" transform="translate(-26.36 -26.17)" style="fill:#6f69ad"/><path d="M224.75,39.28c-.18.62-.69.68-1.21.66s-1.32.09-1.26-.74c.05-.61.74-.56,1.24-.56S224.55,38.67,224.75,39.28Z" transform="translate(-26.36 -26.17)" style="fill:#6f69ad"/><path d="M227,38.68a.85.85,0,0,1,1,.69c.07.45-.34.55-.72.56s-.94-.13-1-.63S226.55,38.72,227,38.68Z" transform="translate(-26.36 -26.17)" style="fill:#6f69ad"/><path d="M254,76.43c-.18-.17-.4-.27-.44-.42a.38.38,0,0,1,.45-.5.56.56,0,0,1,.36.41C254.35,76.07,254.13,76.23,254,76.43Z" transform="translate(-26.36 -26.17)" style="fill:#6f69ad"/><path d="M191.06,176.31a206.82,206.82,0,0,1-4.89,51.49c-.2.84-.53,1.65-.8,2.48a1.34,1.34,0,0,1-.5-1.37c.93-6.32-.24-12.67.31-19-.41,1.55-.73,3.12-1.23,4.63-.2.64-.29,1.51-1.31,1.47,1.38-6.13,2.81-12.25,4.12-18.4s2.52-12.47,3.75-18.72c.12-.6.42-1.31-.35-1.77Z" transform="translate(-26.36 -26.17)" style="fill:#7c6bad"/><path d="M301.67,330.7a224.07,224.07,0,0,1-2-30.29c.39-21.52,4.1-42.36,13.7-61.83,7.77-15.78,18.36-29.2,33.66-38.41a45.19,45.19,0,0,1,10.34-4.85l-3.52,3.93a92.87,92.87,0,0,0-10.34,10.65,2.32,2.32,0,0,0-.25.82c-2.18,3.23-4.75,6.16-7,9.32-8.42,11.74-14.05,24.59-15.62,39a97.71,97.71,0,0,0,1.47,28.24c1.14,6.22,2.7,12.34,4.41,18.42l-1.77,2.52-13.68,13.24a14.55,14.55,0,0,1-3.09,3.08C305.64,326.38,303.81,328.7,301.67,330.7Z" transform="translate(-26.36 -26.17)" style="fill:#7e6dae"/><path d="M212.25,136.65l-4.44,5.57c0-1.1-.94-1.88-.66-3.24.2-1-1.4.18-2.18-.38-.47-.34-.66.31-.57.79a9.73,9.73,0,0,1,.3,1.27c0,.62.23,1.41-.7,1.62s-1.71-.12-1.69-.94c.05-2.57-2-3-3.6-4.07-1-.63-2-1.35-1.94-2.75,0-.37-.05-.76-.46-.92-2.65-1-1.94-2.06-.15-3.24a4.6,4.6,0,0,0,.94-.93c1.08-1.31,2.08-1.56,3,.15.35.63.81,1.46,1.64.76a1.28,1.28,0,0,0,.15-2.09,4,4,0,0,1-1-1.46c-.48-1.43-.94-2.61-2.6-1-.24.23-.85.18-1.26.1-1.8-.37-2.38.6-2.35,2.15,0,.49.45,1-.17,1.35a1.64,1.64,0,0,1-1.69-.12,1.11,1.11,0,0,1-.36-1.37c.52-1.69.28-2.71-1.84-2a.6.6,0,0,1-.86-.42c-.1-.46.24-.6.56-.81,1.23-.77,2.44-1.56,3.63-2.39.39-.27,1-.57.61-1.21a1.06,1.06,0,0,0-1.48-.54,1.94,1.94,0,0,1-.63.2c-.59.06-1.28.85-1.75,0-.35-.66.22-1.24.66-1.74.65-.72,1.54-1.86.55-2.37a5.08,5.08,0,0,0-3.94-.73c-.63.22-.49.79-.3,1.32.68,1.93-.64,2.52-2.08,2.85-1.78.42-1.53-1.11-1.76-2.07-.56-2.4-1.47-4.79-.07-7.25a1.37,1.37,0,0,0-.76-2c-.78-.27-1.09.56-1.35,1.13a6.76,6.76,0,0,0-.38,1.47c-.14.69.38,1.74-.37,2-1,.37-.79-.94-1.24-1.41-.27-.28-.59-.52-1-.36-1,.4-.13,1.13-.21,1.73-3.15-2.25-3.21-3.33-.3-5.37.44-.31.91-.64.84-1.19-.31-2.16.58-2.56,2.47-1.49.05-1.73-.95-1.75-2-1.74-1.42,0-1.81,1.06-2.13,2.11a3.69,3.69,0,0,0,.08,1.31c.07.61-.42.77-.82.81-.68.06-.66-.51-.49-.9.46-1,.4-1.75-.84-2.22-.9-.34-.37-1.1-.12-1.69.13-.32.43-.67,0-1a.72.72,0,0,0-1,.11c-.73.75-2.59.53-2.34,1.9.2,1.14,1.65,1.41,3,1.4-2.67,1.79-2.88,1.64-3.83-1.15-.5-1.47-1.81-2.58-2.26-4.14-.15-.51-.5-1,.16-1.29,1-.37,1.2-.9,1.19-2s.91-.9,1.58-.33c.48.43.61,1.63,1.58,1a2.53,2.53,0,0,0,.82-2.18c0-1.12-2.12-2.56-3.34-2.41s-1.93.31-1.68-1.51c.16-1.1-.83-2.36-1.59-3.51.61,1.54-1,2.84-.17,4.52.39.81-.82,1.78-1.67,2.29-1.93,1.17-3.18.71-4.5-1.14a17.16,17.16,0,0,0-2.83-2.75,4,4,0,0,1-1.74-3.14,4.08,4.08,0,0,1,2.06-1.09c.67-.24,1.48-.44,1.55-1.34a.8.8,0,0,0-.66-.79c-.82,0-1.19.73-1.63,1.26s-.69,1.47-1.32,2c-.92-.26-1.8-.56-2.68-.85,2.45-2.53,4.92-5,7.35-7.59.59-.62.95-.54,1.62,0,2.62,2,4,5,6.44,7.1a36.28,36.28,0,0,1,5.22,6.39c1.91,2.6,4.55,3.48,7.7,3.4-.4.66-1,.53-1.44.63-2,.49-1.66,1.4-.56,2.54,3.55,3.67,6.58,7.81,10.05,11.52,3.63,3.88,7.21,7.87,10.49,12C204.61,127.35,209.7,131,212.25,136.65Z" transform="translate(-26.36 -26.17)" style="fill:#6a68ac"/><path d="M274.9,411.25c-1.32,1.47-2.64,1.5-4.14.08A3.61,3.61,0,0,1,274.9,411.25Z" transform="translate(-26.36 -26.17)" style="fill:#7169ad"/><path d="M293.3,362.47c.3.24.58.37.69.58s-.08.55-.37.64-.76,0-.8-.46C292.8,363,293.08,362.8,293.3,362.47Z" transform="translate(-26.36 -26.17)" style="fill:#6b68ac"/><path d="M397.32,347c-.17.47-.31,1-1,.94-.46,0-.86-.29-.7-.83s.33-1.21,1.07-1.12C397.19,346,397.27,346.51,397.32,347Z" transform="translate(-26.36 -26.17)" style="fill:#5f5ea6"/><path d="M308,324.57a13.1,13.1,0,0,1,3.09-3.08c-.33,1.5-1.58,2.21-2.65,3.08Z" transform="translate(-26.36 -26.17)" style="fill:#6a68ac"/><path d="M382.12,281.19a1.84,1.84,0,0,1-.25-.51c-.09-.33.11-.59.43-.48a1.12,1.12,0,0,1,.53.58C382.93,281,382.73,281.16,382.12,281.19Z" transform="translate(-26.36 -26.17)" style="fill:#5c5ca5"/><path d="M275.73,380.58c-1.45-.83-2.5-1.19-2.28-2.31.1-.55,1.05-.39,1.56-.24C276.58,378.48,275,379.48,275.73,380.58Z" transform="translate(-26.36 -26.17)" style="fill:#6f69ad"/><path d="M147.24,271.57a14.6,14.6,0,0,1,3.56-2.63c2.17-1.27,2.85-1,2.93,1.47.12,3.94.1,7.88,0,11.81,0,1,0,2.15-1.52,2.21a18.21,18.21,0,0,1-3.54-3.53c.36-2.68-.18-5.36-.06-8C148.66,271.69,147.64,272.05,147.24,271.57Z" transform="translate(-26.36 -26.17)" style="fill:#5055a0"/><path d="M152.2,284.43c1-.47.89-1.41.89-2.28,0-3.82-.09-7.64,0-11.45.07-2-.36-2.74-2.33-1.76a23.71,23.71,0,0,1,3.94-3.12,1.25,1.25,0,0,1,1.49,1.26c.16,4.95.85,9.93-.43,14.85a7.81,7.81,0,0,1-3.08,3Z" transform="translate(-26.36 -26.17)" style="fill:#5256a0"/><path d="M147.24,271.57l1.73-.45c.2,2.62.41,5.24.57,7.87a2.19,2.19,0,0,1-.88,1.91,51.45,51.45,0,0,1-6.16-6.19Z" transform="translate(-26.36 -26.17)" style="fill:#4e539e"/><path d="M153.09,285.83a12.65,12.65,0,0,1,3.44,3.44A6.37,6.37,0,0,1,153.09,285.83Z" transform="translate(-26.36 -26.17)" style="fill:#736aad"/><path d="M209.58,342.32a12.76,12.76,0,0,1,3.44,3.43A6.32,6.32,0,0,1,209.58,342.32Z" transform="translate(-26.36 -26.17)" style="fill:#736aad"/><path d="M177.36,310.1a9.76,9.76,0,0,1,3,3A5,5,0,0,1,177.36,310.1Z" transform="translate(-26.36 -26.17)" style="fill:#736aad"/><path d="M185.75,318.49a9.73,9.73,0,0,1,3,3A5,5,0,0,1,185.75,318.49Z" transform="translate(-26.36 -26.17)" style="fill:#736aad"/><path d="M161.48,294.22a9.73,9.73,0,0,1,3,3A5,5,0,0,1,161.48,294.22Z" transform="translate(-26.36 -26.17)" style="fill:#736aad"/><path d="M193.69,326.43a9.76,9.76,0,0,1,3,3A5,5,0,0,1,193.69,326.43Z" transform="translate(-26.36 -26.17)" style="fill:#736aad"/><path d="M201.63,334.37a9.76,9.76,0,0,1,3,3A5,5,0,0,1,201.63,334.37Z" transform="translate(-26.36 -26.17)" style="fill:#736aad"/><path d="M225.9,358.64a9.76,9.76,0,0,1,3,3A5,5,0,0,1,225.9,358.64Z" transform="translate(-26.36 -26.17)" style="fill:#736aad"/><path d="M233.85,366.59a9.59,9.59,0,0,1,3,3A5,5,0,0,1,233.85,366.59Z" transform="translate(-26.36 -26.17)" style="fill:#736aad"/><path d="M218,350.7a9.76,9.76,0,0,1,3,3A5,5,0,0,1,218,350.7Z" transform="translate(-26.36 -26.17)" style="fill:#736aad"/><path d="M169.42,302.16a9.76,9.76,0,0,1,3,3A5,5,0,0,1,169.42,302.16Z" transform="translate(-26.36 -26.17)" style="fill:#736aad"/><path d="M242.23,375a3.79,3.79,0,0,1,1.76,1.69c.14.09.19.19.14.28s-.09.15-.14.15C243.2,376.55,242.39,376,242.23,375Z" transform="translate(-26.36 -26.17)" style="fill:#736aad"/><path d="M244,377.09v-.43A2.69,2.69,0,0,1,245.3,378,1.35,1.35,0,0,1,244,377.09Z" transform="translate(-26.36 -26.17)" style="fill:#746bad"/><path d="M190.93,122.83c-.65,1.29-2,1.21-2.88,1.69-.53.28-1.6-.83-1.27-1.31a5.5,5.5,0,0,1,2.74-2.31C190.46,120.65,190.09,122.33,190.93,122.83Z" transform="translate(-26.36 -26.17)" style="fill:#6a68ac"/><path d="M204.32,147.17a3.87,3.87,0,0,1-1.33,2.32A2.56,2.56,0,0,1,204.32,147.17Z" transform="translate(-26.36 -26.17)" style="fill:#6a68ac"/><path d="M340.92,291.42l1.4-1.41c.08.62,1.21,1,.63,1.65S341.63,291.35,340.92,291.42Z" transform="translate(-26.36 -26.17)" style="fill:#6160a7"/><path d="M365.59,295.54c.08.39,0,.56-.3.45a1.26,1.26,0,0,1-.63-.47c-.13-.22.12-.42.34-.36A2.5,2.5,0,0,1,365.59,295.54Z" transform="translate(-26.36 -26.17)" style="fill:#5c5ca5"/><path d="M375.29,322.93c-.23.12-.39.28-.52.25s-.27-.22-.41-.34c.13-.11.27-.33.39-.31S375.05,322.74,375.29,322.93Z" transform="translate(-26.36 -26.17)" style="fill:#6160a7"/><path d="M348.09,380.58c0,.45-.14.86-.47.73a5.34,5.34,0,0,1-2.35-2.21c-.28-.43.21-.75.55-.6A6.81,6.81,0,0,1,348.09,380.58Z" transform="translate(-26.36 -26.17)" style="fill:#6a68ac"/><path d="M351,383.49c.36.14.56.35.49.65a.52.52,0,0,1-.44.28c-.29,0-.53-.25-.43-.58C350.67,383.69,350.9,383.59,351,383.49Z" transform="translate(-26.36 -26.17)" style="fill:#6a68ac"/><path d="M360.84,86.32,356,83.24c1.52-.49,1.14-1.92,1.39-3a10.65,10.65,0,0,0,0-2.33c2.51,0,4.6,1.54,7,1.8q0,3.75,0,7.5a1.42,1.42,0,0,1-.95,1.32l-.84-.77A5.11,5.11,0,0,0,360.84,86.32Z" transform="translate(-26.36 -26.17)" style="fill:#5557a1"/><path d="M434.13,134.09a3.93,3.93,0,0,1-1.34-1.89A1.81,1.81,0,0,1,434.13,134.09Z" transform="translate(-26.36 -26.17)" style="fill:#7c6cae"/><path d="M182.64,216c1.49-2.45,1.31-5.42,2.5-8,.75.69.57,1.6.61,2.46.21,4.81-.36,9.62.36,14.43.27,1.75-.91,3.5-.74,5.35a54.9,54.9,0,0,1-4,12.29c-1.21-.83-1.11-2.13-1.13-3.35,0-4,0-8,0-12a4.51,4.51,0,0,0-.16-1.93Q181.34,220.65,182.64,216Z" transform="translate(-26.36 -26.17)" style="fill:#766aad"/><path d="M180.05,225.29c1.21.25.82,1.22.83,2,0,3.89,0,7.77,0,11.65a11.71,11.71,0,0,0,.48,3.68,37.87,37.87,0,0,1-4.88,10c-1-.85-1-2-1-3.2-.06-2.32-.12-4.64,0-7,.07-1.24-.63-1.17-1.38-1.27C176.39,236,178.08,230.59,180.05,225.29Z" transform="translate(-26.36 -26.17)" style="fill:#736aad"/><path d="M174.09,241.15c.83-.17.74-1.25,1.73-1.61.66,4.36-.32,8.76.66,13a45.7,45.7,0,0,1-5.24,9c-.89-.8-.67-1.89-.7-2.89-.1-3.37,0-6.74-.37-10.11Q172.14,244.88,174.09,241.15Z" transform="translate(-26.36 -26.17)" style="fill:#6d69ac"/><path d="M155.8,281.93l-.06-13.67c0-.95.15-2-1-2.44a14.89,14.89,0,0,1,3.07-2.64c1.81-.57,2.42-.34,2.47,1.4a78.8,78.8,0,0,1-.14,12.29A24.12,24.12,0,0,1,155.8,281.93Z" transform="translate(-26.36 -26.17)" style="fill:#5558a2"/><path d="M160.14,276.87c-.87-2-.31-4.06-.41-6.09a59,59,0,0,1,0-5.95c.08-1.53-.54-2-1.93-1.65l4.93-4.83c1.23-.06,1.48.86,1.53,1.74a100.53,100.53,0,0,1,0,10.56,7,7,0,0,1-1,2.42A12.16,12.16,0,0,1,160.14,276.87Z" transform="translate(-26.36 -26.17)" style="fill:#5b5ca5"/><path d="M163.29,273.07c.8-4.43.23-8.91.38-13.36a1.41,1.41,0,0,0-.93-1.36l3.45-4c1.79-1.1,1.93.54,2,1.44a55,55,0,0,1-.08,10.5C166.6,268.64,165.3,271.11,163.29,273.07Z" transform="translate(-26.36 -26.17)" style="fill:#6160a7"/><path d="M168.09,266.31c-.94-2.78-.21-5.64-.43-8.46-.06-.79.05-1.61-.06-2.4s-.37-1.47-1.41-1.08q2-2.88,4-5.77a4.21,4.21,0,0,1,1,3.22q0,4.89.05,9.78A15.15,15.15,0,0,1,168.09,266.31Z" transform="translate(-26.36 -26.17)" style="fill:#6765aa"/><path d="M319.52,99c3.15,4.8,7.15,7.53,12.56,7.76a15,15,0,0,0,15.86-15.44c0-1.87.5-1.69,1.81-1.15a25.28,25.28,0,0,1,15,28.19c-2.44,12-12.86,20.21-25.43,20.09-11.46-.12-21.74-8.89-23.86-20.36A25,25,0,0,1,319.52,99Z" transform="translate(-26.36 -26.17)" style="fill:#1e1e1e"/><path d="M360.84,86.32a1.77,1.77,0,0,1,1.82,1.44A4.82,4.82,0,0,1,360.84,86.32Z" transform="translate(-26.36 -26.17)" style="fill:#5a5aa3"/><path d="M156.55,87.73a7.65,7.65,0,0,1,1.71-3.35c1.21-1.34,2.25-.26,2.75.32.84,1-.5,1.51-1.1,1.85A19.19,19.19,0,0,1,156.55,87.73Z" transform="translate(-26.36 -26.17)" style="fill:#6a68ac"/><path d="M164,89.66c-.34.74-.92,1.1-1.44.85-1-.46-2.47-.53-2.36-2.13.06-1,.92-.78,1.53-.74C163.07,87.72,163.28,89,164,89.66Z" transform="translate(-26.36 -26.17)" style="fill:#6a68ac"/><path d="M176.25,99.4c1.09.8,2,1.41,2.79,2.06a.76.76,0,0,1,.23,1.14c-.32.41-.71.36-1.16.16C176.75,102.17,176.26,101.13,176.25,99.4Z" transform="translate(-26.36 -26.17)" style="fill:#6a68ac"/><path d="M187.11,115.31c-.64,0-.87-.22-.84-.64a1,1,0,0,1,1-1c.3,0,.59.15.54.5A1.43,1.43,0,0,1,187.11,115.31Z" transform="translate(-26.36 -26.17)" style="fill:#6a68ac"/><path d="M173.17,99a1.47,1.47,0,0,1,1.7-.1c0,.16,0,.36,0,.41C174.31,99.68,173.8,99.57,173.17,99Z" transform="translate(-26.36 -26.17)" style="fill:#6a68ac"/><path d="M181,107.12c.22-.48.5-.54.79-.44s.71.33.64.76-.37.41-.65.24A8.78,8.78,0,0,1,181,107.12Z" transform="translate(-26.36 -26.17)" style="fill:#6a68ac"/><path d="M161.25,81.33a4.66,4.66,0,0,1,.5,1c0,.08-.28.34-.4.32a.5.5,0,0,1-.48-.57A3.18,3.18,0,0,1,161.25,81.33Z" transform="translate(-26.36 -26.17)" style="fill:#6a68ac"/></svg>