<svg xmlns="http://www.w3.org/2000/svg" viewBox="0 0 459.5 459.46"><path d="M19.82,250.26C20,123,122.91,20.32,249.83,20.67,377.14,21,479.86,124,479.32,250.78,478.78,378,376.47,480.16,249.56,480.13,122.4,480.09,19.61,377.24,19.82,250.26Z" transform="translate(-19.82 -20.67)" style="fill:#139acf"/><path d="M354.83,153.61c7.15.09,11.43,5.54,10,13.24-2.28,12.56-4.94,25.06-7.59,37.55q-13.81,65.22-27.73,130.43a20.81,20.81,0,0,1-3,7.83c-3,4.21-6.8,5.43-11.77,3.88-3.09-1-5.61-2.84-8.14-4.72-15.37-11.34-30.79-22.62-46-34.11-2.69-2-4.17-1.95-6.51.43-7.34,7.46-15,14.66-22.45,22a17.81,17.81,0,0,1-6.47,4.53c-6.13,2.15-9.44.6-11.43-5.55-6.12-18.93-12.3-37.84-18.22-56.84-1.33-4.26-3.6-6.56-7.91-7.82-14-4.11-27.92-8.51-41.8-13-4.59-1.48-11.18-2-11.36-8s6.13-7.85,10.76-9.69c22.34-8.9,44.8-17.5,67.23-26.17Q279.27,181.76,346.12,156C349,154.86,351.91,153.39,354.83,153.61Z" transform="translate(-19.82 -20.67)" style="fill:#fefefe"/><path d="M220.08,319.78c-3.83-11.73-7.61-23.3-11.4-34.88-1.8-5.52-3.31-11.15-5.51-16.51-1.72-4.2-.81-6.46,3-8.86,27.22-16.92,54.29-34,81.41-51.13,9.28-5.83,18.5-11.75,27.84-17.49,2.46-1.51,5.93-4,8-1.11,1.54,2.23-2.21,4.27-4.08,5.95-29.7,26.86-59.38,53.76-89.26,80.41a18,18,0,0,0-6.37,13.34c-.55,8.94-1.45,17.87-2.24,26.8C221.38,317.42,221.59,318.67,220.08,319.78Z" transform="translate(-19.82 -20.67)" style="fill:#139acf"/></svg>